<svg xmlns="http://www.w3.org/2000/svg" width="900" height="900" viewBox="0 0 900 900">
<rect width="100%" height="100%" fill="#ffffff"/>
<line x1="159.68" y1="810.00" x2="159.68" y2="90.00" stroke="#232323" stroke-width="3"/>
<line x1="90.00" y1="542.41" x2="810.00" y2="542.41" stroke="#232323" stroke-width="3"/>
<polyline points="159.68,542.41 159.68,542.41 159.68,542.41 159.68,542.40 159.68,542.40 159.68,542.39 159.68,542.38 159.68,542.37 159.68,542.35 159.68,542.34 159.68,542.32 159.68,542.30 159.68,542.28 159.68,542.25 159.68,542.23 159.68,542.20 159.68,542.17 159.68,542.14 159.69,542.11 159.69,542.08 159.69,542.04 159.69,542.00 159.69,541.96 159.69,541.92 159.70,541.88 159.70,541.83 159.70,541.78 159.70,541.73 159.71,541.68 159.71,541.63 159.72,541.57 159.72,541.52 159.72,541.46 159.73,541.40 159.73,541.34 159.74,541.27 159.74,541.21 159.75,541.14 159.75,541.07 159.76,541.00 159.77,540.93 159.77,540.85 159.78,540.77 159.79,540.69 159.80,540.61 159.80,540.53 159.81,540.45 159.82,540.36 159.83,540.27 159.84,540.18 159.85,540.09 159.86,540.00 159.87,539.90 159.88,539.81 159.90,539.71 159.91,539.61 159.92,539.50 159.93,539.40 159.95,539.29 159.96,539.19 159.98,539.08 159.99,538.97 160.01,538.85 160.02,538.74 160.04,538.62 160.06,538.50 160.08,538.38 160.10,538.26 160.11,538.14 160.13,538.01 160.15,537.88 160.17,537.75 160.20,537.62 160.22,537.49 160.24,537.36 160.26,537.22 160.29,537.08 160.31,536.94 160.34,536.80 160.36,536.66 160.39,536.51 160.41,536.36 160.44,536.22 160.47,536.07 160.50,535.91 160.53,535.76 160.56,535.60 160.59,535.45 160.62,535.29 160.65,535.13 160.69,534.97 160.72,534.80 160.75,534.64 160.79,534.47 160.83,534.30 160.86,534.13 160.90,533.96 160.94,533.78 160.98,533.60 161.02,533.43 161.06,533.25 161.10,533.07 161.14,532.88 161.19,532.70 161.23,532.51 161.27,532.33 161.32,532.14 161.37,531.95 161.41,531.75 161.46,531.56 161.51,531.36 161.56,531.16 161.61,530.97 161.66,530.76 161.72,530.56 161.77,530.36 161.83,530.15 161.88,529.94 161.94,529.74 162.00,529.53 162.05,529.31 162.11,529.10 162.17,528.88 162.23,528.67 162.30,528.45 162.36,528.23 162.42,528.01 162.49,527.78 162.56,527.56 162.62,527.33 162.69,527.10 162.76,526.87 162.83,526.64 162.90,526.41 162.97,526.18 163.05,525.94 163.12,525.70 163.20,525.46 163.27,525.22 163.35,524.98 163.43,524.74 163.51,524.49 163.59,524.25 163.67,524.00 163.76,523.75 163.84,523.50 163.93,523.25 164.01,522.99 164.10,522.74 164.19,522.48 164.28,522.22 164.37,521.96 164.46,521.70 164.56,521.44 164.65,521.18 164.75,520.91 164.85,520.64 164.94,520.38 165.04,520.11 165.14,519.83 165.25,519.56 165.35,519.29 165.45,519.01 165.56,518.74 165.67,518.46 165.78,518.18 165.88,517.90 166.00,517.62 166.11,517.33 166.22,517.05 166.34,516.76 166.45,516.47 166.57,516.18 166.69,515.89 166.81,515.60 166.93,515.31 167.05,515.01 167.17,514.72 167.30,514.42 167.43,514.12 167.55,513.82 167.68,513.52 167.81,513.22 167.94,512.92 168.08,512.61 168.21,512.31 168.35,512.00 168.49,511.69 168.62,511.38 168.76,511.07 168.91,510.76 169.05,510.45 169.19,510.13 169.34,509.82 169.49,509.50 169.63,509.18 169.78,508.86 169.94,508.54 170.09,508.22 170.24,507.90 170.40,507.57 170.56,507.25 170.71,506.92 170.87,506.59 171.04,506.26 171.20,505.93 171.36,505.60 171.53,505.27 171.70,504.94 171.87,504.60 172.04,504.27 172.21,503.93 172.38,503.59 172.56,503.26 172.73,502.92 172.91,502.57 173.09,502.23 173.27,501.89 173.46,501.55 173.64,501.20 173.83,500.86 174.01,500.51 174.20,500.16 174.39,499.81 174.58,499.46 174.78,499.11 174.97,498.76 175.17,498.40 175.37,498.05 175.57,497.70 175.77,497.34 175.97,496.98 176.18,496.62 176.39,496.27 176.59,495.91 176.80,495.55 177.01,495.18 177.23,494.82 177.44,494.46 177.66,494.09 177.88,493.73 178.10,493.36 178.32,493.00 178.54,492.63 178.76,492.26 178.99,491.89 179.22,491.52 179.45,491.15 179.68,490.78 179.91,490.40 180.15,490.03 180.38,489.65 180.62,489.28 180.86,488.90 181.10,488.53 181.34,488.15 181.59,487.77 181.83,487.39 182.08,487.01 182.33,486.63 182.58,486.25 182.84,485.87 183.09,485.48 183.35,485.10 183.61,484.72 183.87,484.33 184.13,483.95 184.39,483.56 184.66,483.17 184.92,482.78 185.19,482.40 185.46,482.01 185.73,481.62 186.01,481.23 186.28,480.84 186.56,480.44 186.84,480.05 187.12,479.66 187.40,479.27 187.69,478.87 187.97,478.48 188.26,478.08 188.55,477.69 188.84,477.29 189.14,476.89 189.43,476.50 189.73,476.10 190.03,475.70 190.33,475.30 190.63,474.90 190.93,474.50 191.24,474.10 191.55,473.70 191.86,473.30 192.17,472.90 192.48,472.50 192.80,472.09 193.11,471.69 193.43,471.29 193.75,470.88 194.07,470.48 194.40,470.07 194.72,469.67 195.05,469.26 195.38,468.85 195.71,468.45 196.05,468.04 196.38,467.63 196.72,467.23 197.06,466.82 197.40,466.41 197.74,466.00 198.08,465.59 198.43,465.18 198.78,464.77 199.13,464.36 199.48,463.95 199.83,463.54 200.19,463.13 200.54,462.72 200.90,462.31 201.26,461.90 201.63,461.49 201.99,461.08 202.36,460.66 202.72,460.25 203.09,459.84 203.47,459.43 203.84,459.01 204.22,458.60 204.59,458.19 204.97,457.77 205.35,457.36 205.74,456.95 206.12,456.53 206.51,456.12 206.90,455.70 207.29,455.29 207.68,454.87 208.07,454.46 208.47,454.05 208.87,453.63 209.27,453.22 209.67,452.80 210.07,452.39 210.48,451.97 210.88,451.56 211.29,451.14 211.70,450.73 212.12,450.31 212.53,449.90 212.95,449.48 213.36,449.07 213.78,448.65 214.21,448.24 214.63,447.82 215.06,447.41 215.48,446.99 215.91,446.58 216.35,446.16 216.78,445.75 217.21,445.33 217.65,444.92 218.09,444.50 218.53,444.09 218.97,443.68 219.42,443.26 219.86,442.85 220.31,442.43 220.76,442.02 221.21,441.61 221.67,441.19 222.12,440.78 222.58,440.37 223.04,439.95 223.50,439.54 223.96,439.13 224.43,438.72 224.89,438.31 225.36,437.89 225.83,437.48 226.30,437.07 226.78,436.66 227.25,436.25 227.73,435.84 228.21,435.43 228.69,435.02 229.18,434.61 229.66,434.20 230.15,433.79 230.64,433.39 231.13,432.98 231.62,432.57 232.11,432.16 232.61,431.75 233.11,431.35 233.61,430.94 234.11,430.54 234.61,430.13 235.12,429.73 235.63,429.32 236.13,428.92 236.64,428.51 237.16,428.11 237.67,427.71 238.19,427.30 238.71,426.90 239.23,426.50 239.75,426.10 240.27,425.70 240.80,425.30 241.32,424.90 241.85,424.50 242.38,424.10 242.91,423.70 243.45,423.30 243.98,422.91 244.52,422.51 245.06,422.11 245.60,421.72 246.14,421.32 246.69,420.93 247.24,420.54 247.78,420.14 248.33,419.75 248.89,419.36 249.44,418.97 249.99,418.58 250.55,418.19 251.11,417.80 251.67,417.41 252.23,417.02 252.80,416.63 253.36,416.25 253.93,415.86 254.50,415.48 255.07,415.09 255.64,414.71 256.22,414.32 256.79,413.94 257.37,413.56 257.95,413.18 258.53,412.80 259.12,412.42 259.70,412.04 260.29,411.66 260.87,411.28 261.46,410.91 262.06,410.53 262.65,410.16 263.24,409.78 263.84,409.41 264.44,409.04 265.04,408.67 265.64,408.30 266.24,407.93 266.85,407.56 267.45,407.19 268.06,406.82 268.67,406.45 269.28,406.09 269.90,405.72 270.51,405.36 271.13,405.00 271.75,404.63 272.37,404.27 272.99,403.91 273.61,403.55 274.23,403.20 274.86,402.84 275.49,402.48 276.12,402.13 276.75,401.77 277.38,401.42 278.01,401.07 278.65,400.71 279.29,400.36 279.93,400.01 280.57,399.67 281.21,399.32 281.85,398.97 282.50,398.63 283.14,398.28 283.79,397.94 284.44,397.60 285.09,397.25 285.74,396.91 286.40,396.57 287.05,396.24 287.71,395.90 288.37,395.56 289.03,395.23 289.69,394.90 290.36,394.56 291.02,394.23 291.69,393.90 292.35,393.57 293.02,393.24 293.69,392.92 294.37,392.59 295.04,392.27 295.72,391.94 296.39,391.62 297.07,391.30 297.75,390.98 298.43,390.66 299.11,390.34 299.80,390.03 300.48,389.71 301.17,389.40 301.86,389.08 302.54,388.77 303.24,388.46 303.93,388.15 304.62,387.85 305.32,387.54 306.01,387.23 306.71,386.93 307.41,386.63 308.11,386.33 308.81,386.03 309.51,385.73 310.22,385.43 310.92,385.13 311.63,384.84 312.34,384.54 313.05,384.25 313.76,383.96 314.47,383.67 315.19,383.38 315.90,383.10 316.62,382.81 317.33,382.53 318.05,382.24 318.77,381.96 319.49,381.68 320.22,381.40 320.94,381.13 321.67,380.85 322.39,380.57 323.12,380.30 323.85,380.03 324.58,379.76 325.31,379.49 326.04,379.22 326.78,378.96 327.51,378.69 328.25,378.43 328.98,378.17 329.72,377.91 330.46,377.65 331.20,377.39 331.94,377.13 332.69,376.88 333.43,376.63 334.17,376.37 334.92,376.12 335.67,375.88 336.42,375.63 337.17,375.38 337.92,375.14 338.67,374.90 339.42,374.66 340.18,374.42 340.93,374.18 341.69,373.94 342.44,373.71 343.20,373.47 343.96,373.24 344.72,373.01 345.48,372.78 346.25,372.55 347.01,372.33 347.77,372.10 348.54,371.88 349.31,371.66 350.07,371.44 350.84,371.22 351.61,371.01 352.38,370.79 353.15,370.58 353.92,370.37 354.70,370.16 355.47,369.95 356.25,369.74 357.02,369.54 357.80,369.34 358.58,369.13 359.36,368.93 360.14,368.74 360.92,368.54 361.70,368.34 362.48,368.15 363.26,367.96 364.05,367.77 364.83,367.58 365.62,367.39 366.40,367.21 367.19,367.02 367.98,366.84 368.77,366.66 369.56,366.48 370.35,366.31 371.14,366.13 371.93,365.96 372.72,365.79 373.52,365.62 374.31,365.45 375.11,365.28 375.90,365.12 376.70,364.95 377.50,364.79 378.30,364.63 379.09,364.47 379.89,364.32 380.69,364.16 381.49,364.01 382.30,363.86 383.10,363.71 383.90,363.56 384.70,363.42 385.51,363.27 386.31,363.13 387.12,362.99 387.93,362.85 388.73,362.71 389.54,362.58 390.35,362.44 391.16,362.31 391.97,362.18 392.78,362.05 393.59,361.93 394.40,361.80 395.21,361.68 396.02,361.56 396.83,361.44 397.65,361.32 398.46,361.20 399.27,361.09 400.09,360.98 400.90,360.87 401.72,360.76 402.53,360.65 403.35,360.55 404.17,360.44 404.99,360.34 405.80,360.24 406.62,360.14 407.44,360.05 408.26,359.95 409.08,359.86 409.90,359.77 410.72,359.68 411.54,359.60 412.36,359.51 413.18,359.43 414.01,359.35 414.83,359.27 415.65,359.19 416.47,359.11 417.30,359.04 418.12,358.97 418.95,358.89 419.77,358.83 420.59,358.76 421.42,358.69 422.24,358.63 423.07,358.57 423.90,358.51 424.72,358.45 425.55,358.40 426.37,358.34 427.20,358.29 428.03,358.24 428.86,358.19 429.68,358.15 430.51,358.10 431.34,358.06 432.17,358.02 433.00,357.98 433.82,357.94 434.65,357.91 435.48,357.87 436.31,357.84 437.14,357.81 437.97,357.78 438.80,357.76 439.63,357.73 440.46,357.71 441.29,357.69 442.12,357.67 442.95,357.65 443.77,357.64 444.60,357.63 445.43,357.62 446.26,357.61 447.09,357.60 447.92,357.59 448.75,357.59 449.58,357.59 450.42,357.59 451.25,357.59 452.08,357.59 452.91,357.60 453.74,357.61 454.57,357.62 455.40,357.63 456.23,357.64 457.05,357.65 457.88,357.67 458.71,357.69 459.54,357.71 460.37,357.73 461.20,357.76 462.03,357.78 462.86,357.81 463.69,357.84 464.52,357.87 465.35,357.91 466.18,357.94 467.00,357.98 467.83,358.02 468.66,358.06 469.49,358.10 470.32,358.15 471.14,358.19 471.97,358.24 472.80,358.29 473.63,358.34 474.45,358.40 475.28,358.45 476.10,358.51 476.93,358.57 477.76,358.63 478.58,358.69 479.41,358.76 480.23,358.83 481.05,358.89 481.88,358.97 482.70,359.04 483.53,359.11 484.35,359.19 485.17,359.27 485.99,359.35 486.82,359.43 487.64,359.51 488.46,359.60 489.28,359.68 490.10,359.77 490.92,359.86 491.74,359.95 492.56,360.05 493.38,360.14 494.20,360.24 495.01,360.34 495.83,360.44 496.65,360.55 497.47,360.65 498.28,360.76 499.10,360.87 499.91,360.98 500.73,361.09 501.54,361.20 502.35,361.32 503.17,361.44 503.98,361.56 504.79,361.68 505.60,361.80 506.41,361.93 507.22,362.05 508.03,362.18 508.84,362.31 509.65,362.44 510.46,362.58 511.27,362.71 512.07,362.85 512.88,362.99 513.69,363.13 514.49,363.27 515.30,363.42 516.10,363.56 516.90,363.71 517.70,363.86 518.51,364.01 519.31,364.16 520.11,364.32 520.91,364.47 521.70,364.63 522.50,364.79 523.30,364.95 524.10,365.12 524.89,365.28 525.69,365.45 526.48,365.62 527.28,365.79 528.07,365.96 528.86,366.13 529.65,366.31 530.44,366.48 531.23,366.66 532.02,366.84 532.81,367.02 533.60,367.21 534.38,367.39 535.17,367.58 535.95,367.77 536.74,367.96 537.52,368.15 538.30,368.34 539.08,368.54 539.86,368.74 540.64,368.93 541.42,369.13 542.20,369.34 542.98,369.54 543.75,369.74 544.53,369.95 545.30,370.16 546.08,370.37 546.85,370.58 547.62,370.79 548.39,371.01 549.16,371.22 549.93,371.44 550.69,371.66 551.46,371.88 552.23,372.10 552.99,372.33 553.75,372.55 554.52,372.78 555.28,373.01 556.04,373.24 556.80,373.47 557.56,373.71 558.31,373.94 559.07,374.18 559.82,374.42 560.58,374.66 561.33,374.90 562.08,375.14 562.83,375.38 563.58,375.63 564.33,375.88 565.08,376.12 565.83,376.37 566.57,376.63 567.31,376.88 568.06,377.13 568.80,377.39 569.54,377.65 570.28,377.91 571.02,378.17 571.75,378.43 572.49,378.69 573.22,378.96 573.96,379.22 574.69,379.49 575.42,379.76 576.15,380.03 576.88,380.30 577.61,380.57 578.33,380.85 579.06,381.13 579.78,381.40 580.51,381.68 581.23,381.96 581.95,382.24 582.67,382.53 583.38,382.81 584.10,383.10 584.81,383.38 585.53,383.67 586.24,383.96 586.95,384.25 587.66,384.54 588.37,384.84 589.08,385.13 589.78,385.43 590.49,385.73 591.19,386.03 591.89,386.33 592.59,386.63 593.29,386.93 593.99,387.23 594.68,387.54 595.38,387.85 596.07,388.15 596.76,388.46 597.46,388.77 598.14,389.08 598.83,389.40 599.52,389.71 600.20,390.03 600.89,390.34 601.57,390.66 602.25,390.98 602.93,391.30 603.61,391.62 604.28,391.94 604.96,392.27 605.63,392.59 606.31,392.92 606.98,393.24 607.65,393.57 608.31,393.90 608.98,394.23 609.64,394.56 610.31,394.90 610.97,395.23 611.63,395.56 612.29,395.90 612.95,396.24 613.60,396.57 614.26,396.91 614.91,397.25 615.56,397.60 616.21,397.94 616.86,398.28 617.50,398.63 618.15,398.97 618.79,399.32 619.43,399.67 620.07,400.01 620.71,400.36 621.35,400.71 621.99,401.07 622.62,401.42 623.25,401.77 623.88,402.13 624.51,402.48 625.14,402.84 625.77,403.20 626.39,403.55 627.01,403.91 627.63,404.27 628.25,404.63 628.87,405.00 629.49,405.36 630.10,405.72 630.72,406.09 631.33,406.45 631.94,406.82 632.55,407.19 633.15,407.56 633.76,407.93 634.36,408.30 634.96,408.67 635.56,409.04 636.16,409.41 636.76,409.78 637.35,410.16 637.94,410.53 638.54,410.91 639.13,411.28 639.71,411.66 640.30,412.04 640.88,412.42 641.47,412.80 642.05,413.18 642.63,413.56 643.21,413.94 643.78,414.32 644.36,414.71 644.93,415.09 645.50,415.48 646.07,415.86 646.64,416.25 647.20,416.63 647.77,417.02 648.33,417.41 648.89,417.80 649.45,418.19 650.01,418.58 650.56,418.97 651.11,419.36 651.67,419.75 652.22,420.14 652.76,420.54 653.31,420.93 653.86,421.32 654.40,421.72 654.94,422.11 655.48,422.51 656.02,422.91 656.55,423.30 657.09,423.70 657.62,424.10 658.15,424.50 658.68,424.90 659.20,425.30 659.73,425.70 660.25,426.10 660.77,426.50 661.29,426.90 661.81,427.30 662.33,427.71 662.84,428.11 663.36,428.51 663.87,428.92 664.37,429.32 664.88,429.73 665.39,430.13 665.89,430.54 666.39,430.94 666.89,431.35 667.39,431.75 667.89,432.16 668.38,432.57 668.87,432.98 669.36,433.39 669.85,433.79 670.34,434.20 670.82,434.61 671.31,435.02 671.79,435.43 672.27,435.84 672.75,436.25 673.22,436.66 673.70,437.07 674.17,437.48 674.64,437.89 675.11,438.31 675.57,438.72 676.04,439.13 676.50,439.54 676.96,439.95 677.42,440.37 677.88,440.78 678.33,441.19 678.79,441.61 679.24,442.02 679.69,442.43 680.14,442.85 680.58,443.26 681.03,443.68 681.47,444.09 681.91,444.50 682.35,444.92 682.79,445.33 683.22,445.75 683.65,446.16 684.09,446.58 684.52,446.99 684.94,447.41 685.37,447.82 685.79,448.24 686.22,448.65 686.64,449.07 687.05,449.48 687.47,449.90 687.88,450.31 688.30,450.73 688.71,451.14 689.12,451.56 689.52,451.97 689.93,452.39 690.33,452.80 690.73,453.22 691.13,453.63 691.53,454.05 691.93,454.46 692.32,454.87 692.71,455.29 693.10,455.70 693.49,456.12 693.88,456.53 694.26,456.95 694.65,457.36 695.03,457.77 695.41,458.19 695.78,458.60 696.16,459.01 696.53,459.43 696.91,459.84 697.28,460.25 697.64,460.66 698.01,461.08 698.37,461.49 698.74,461.90 699.10,462.31 699.46,462.72 699.81,463.13 700.17,463.54 700.52,463.95 700.87,464.36 701.22,464.77 701.57,465.18 701.92,465.59 702.26,466.00 702.60,466.41 702.94,466.82 703.28,467.23 703.62,467.63 703.95,468.04 704.29,468.45 704.62,468.85 704.95,469.26 705.28,469.67 705.60,470.07 705.93,470.48 706.25,470.88 706.57,471.29 706.89,471.69 707.20,472.09 707.52,472.50 707.83,472.90 708.14,473.30 708.45,473.70 708.76,474.10 709.07,474.50 709.37,474.90 709.67,475.30 709.97,475.70 710.27,476.10 710.57,476.50 710.86,476.89 711.16,477.29 711.45,477.69 711.74,478.08 712.03,478.48 712.31,478.87 712.60,479.27 712.88,479.66 713.16,480.05 713.44,480.44 713.72,480.84 713.99,481.23 714.27,481.62 714.54,482.01 714.81,482.40 715.08,482.78 715.34,483.17 715.61,483.56 715.87,483.95 716.13,484.33 716.39,484.72 716.65,485.10 716.91,485.48 717.16,485.87 717.42,486.25 717.67,486.63 717.92,487.01 718.17,487.39 718.41,487.77 718.66,488.15 718.90,488.53 719.14,488.90 719.38,489.28 719.62,489.65 719.85,490.03 720.09,490.40 720.32,490.78 720.55,491.15 720.78,491.52 721.01,491.89 721.24,492.26 721.46,492.63 721.68,493.00 721.90,493.36 722.12,493.73 722.34,494.09 722.56,494.46 722.77,494.82 722.99,495.18 723.20,495.55 723.41,495.91 723.61,496.27 723.82,496.62 724.03,496.98 724.23,497.34 724.43,497.70 724.63,498.05 724.83,498.40 725.03,498.76 725.22,499.11 725.42,499.46 725.61,499.81 725.80,500.16 725.99,500.51 726.17,500.86 726.36,501.20 726.54,501.55 726.73,501.89 726.91,502.23 727.09,502.57 727.27,502.92 727.44,503.26 727.62,503.59 727.79,503.93 727.96,504.27 728.13,504.60 728.30,504.94 728.47,505.27 728.64,505.60 728.80,505.93 728.96,506.26 729.13,506.59 729.29,506.92 729.44,507.25 729.60,507.57 729.76,507.90 729.91,508.22 730.06,508.54 730.22,508.86 730.37,509.18 730.51,509.50 730.66,509.82 730.81,510.13 730.95,510.45 731.09,510.76 731.24,511.07 731.38,511.38 731.51,511.69 731.65,512.00 731.79,512.31 731.92,512.61 732.06,512.92 732.19,513.22 732.32,513.52 732.45,513.82 732.57,514.12 732.70,514.42 732.83,514.72 732.95,515.01 733.07,515.31 733.19,515.60 733.31,515.89 733.43,516.18 733.55,516.47 733.66,516.76 733.78,517.05 733.89,517.33 734.00,517.62 734.12,517.90 734.22,518.18 734.33,518.46 734.44,518.74 734.55,519.01 734.65,519.29 734.75,519.56 734.86,519.83 734.96,520.11 735.06,520.38 735.15,520.64 735.25,520.91 735.35,521.18 735.44,521.44 735.54,521.70 735.63,521.96 735.72,522.22 735.81,522.48 735.90,522.74 735.99,522.99 736.07,523.25 736.16,523.50 736.24,523.75 736.33,524.00 736.41,524.25 736.49,524.49 736.57,524.74 736.65,524.98 736.73,525.22 736.80,525.46 736.88,525.70 736.95,525.94 737.03,526.18 737.10,526.41 737.17,526.64 737.24,526.87 737.31,527.10 737.38,527.33 737.44,527.56 737.51,527.78 737.58,528.01 737.64,528.23 737.70,528.45 737.77,528.67 737.83,528.88 737.89,529.10 737.95,529.31 738.00,529.53 738.06,529.74 738.12,529.94 738.17,530.15 738.23,530.36 738.28,530.56 738.34,530.76 738.39,530.97 738.44,531.16 738.49,531.36 738.54,531.56 738.59,531.75 738.63,531.95 738.68,532.14 738.73,532.33 738.77,532.51 738.81,532.70 738.86,532.88 738.90,533.07 738.94,533.25 738.98,533.43 739.02,533.60 739.06,533.78 739.10,533.96 739.14,534.13 739.17,534.30 739.21,534.47 739.25,534.64 739.28,534.80 739.31,534.97 739.35,535.13 739.38,535.29 739.41,535.45 739.44,535.60 739.47,535.76 739.50,535.91 739.53,536.07 739.56,536.22 739.59,536.36 739.61,536.51 739.64,536.66 739.66,536.80 739.69,536.94 739.71,537.08 739.74,537.22 739.76,537.36 739.78,537.49 739.80,537.62 739.83,537.75 739.85,537.88 739.87,538.01 739.89,538.14 739.90,538.26 739.92,538.38 739.94,538.50 739.96,538.62 739.98,538.74 739.99,538.85 740.01,538.97 740.02,539.08 740.04,539.19 740.05,539.29 740.07,539.40 740.08,539.50 740.09,539.61 740.10,539.71 740.12,539.81 740.13,539.90 740.14,540.00 740.15,540.09 740.16,540.18 740.17,540.27 740.18,540.36 740.19,540.45 740.20,540.53 740.20,540.61 740.21,540.69 740.22,540.77 740.23,540.85 740.23,540.93 740.24,541.00 740.25,541.07 740.25,541.14 740.26,541.21 740.26,541.27 740.27,541.34 740.27,541.40 740.28,541.46 740.28,541.52 740.28,541.57 740.29,541.63 740.29,541.68 740.30,541.73 740.30,541.78 740.30,541.83 740.30,541.88 740.31,541.92 740.31,541.96 740.31,542.00 740.31,542.04 740.31,542.08 740.31,542.11 740.32,542.14 740.32,542.17 740.32,542.20 740.32,542.23 740.32,542.25 740.32,542.28 740.32,542.30 740.32,542.32 740.32,542.34 740.32,542.35 740.32,542.37 740.32,542.38 740.32,542.39 740.32,542.40 740.32,542.40 740.32,542.41 740.32,542.41 740.32,542.41" fill="none" stroke="#265cab" stroke-width="7" stroke-linecap="round" stroke-linejoin="round"/>
<polygon points="245.60,421.72 236.17,439.36 225.93,425.34" fill="#265cab"/>
<polygon points="653.86,421.32 634.17,417.79 644.35,403.73" fill="#265cab"/>
</svg>