<svg xmlns="http://www.w3.org/2000/svg" width="900" height="900" viewBox="0 0 900 900">
<rect width="100%" height="100%" fill="#ffffff"/>
<line x1="450.00" y1="810.00" x2="450.00" y2="90.00" stroke="#232323" stroke-width="3"/>
<line x1="90.00" y1="450.00" x2="810.00" y2="450.00" stroke="#232323" stroke-width="3"/>
<polyline points="740.32,450.00 740.31,450.00 740.29,450.00 740.24,450.00 740.18,450.00 740.10,450.00 740.01,449.99 739.89,449.99 739.76,449.99 739.61,449.98 739.44,449.97 739.26,449.97 739.06,449.95 738.84,449.94 738.60,449.93 738.35,449.91 738.08,449.89 737.79,449.87 737.49,449.85 737.16,449.82 736.82,449.79 736.47,449.76 736.09,449.72 735.70,449.68 735.30,449.64 734.87,449.59 734.43,449.54 733.97,449.49 733.50,449.43 733.01,449.36 732.50,449.30 731.98,449.22 731.43,449.15 730.88,449.07 730.30,448.98 729.72,448.89 729.11,448.79 728.49,448.69 727.85,448.58 727.20,448.46 726.53,448.34 725.85,448.22 725.15,448.09 724.43,447.95 723.70,447.80 722.95,447.65 722.19,447.49 721.42,447.33 720.62,447.16 719.82,446.98 719.00,446.79 718.16,446.60 717.31,446.40 716.45,446.19 715.57,445.98 714.68,445.76 713.77,445.53 712.85,445.29 711.92,445.04 710.97,444.79 710.01,444.52 709.04,444.25 708.05,443.97 707.05,443.68 706.04,443.39 705.01,443.08 703.97,442.76 702.92,442.44 701.86,442.11 700.78,441.77 699.69,441.42 698.59,441.05 697.48,440.69 696.36,440.31 695.22,439.92 694.08,439.52 692.92,439.11 691.75,438.69 690.57,438.26 689.38,437.83 688.18,437.38 686.97,436.92 685.75,436.45 684.52,435.98 683.28,435.49 682.03,434.99 680.77,434.48 679.50,433.96 678.22,433.43 676.93,432.89 675.64,432.34 674.33,431.78 673.02,431.20 671.70,430.62 670.37,430.03 669.03,429.42 667.69,428.81 666.33,428.18 664.97,427.55 663.61,426.90 662.23,426.24 660.85,425.57 659.46,424.89 658.07,424.20 656.66,423.49 655.26,422.78 653.84,422.06 652.42,421.32 651.00,420.57 649.57,419.82 648.13,419.05 646.69,418.27 645.25,417.48 643.80,416.67 642.35,415.86 640.89,415.04 639.42,414.20 637.96,413.36 636.49,412.50 635.01,411.63 633.54,410.75 632.06,409.86 630.57,408.96 629.09,408.05 627.60,407.13 626.11,406.19 624.61,405.25 623.12,404.30 621.62,403.33 620.12,402.36 618.62,401.37 617.12,400.37 615.62,399.36 614.11,398.35 612.61,397.32 611.10,396.28 609.60,395.23 608.09,394.17 606.59,393.10 605.08,392.02 603.58,390.93 602.07,389.83 600.57,388.72 599.07,387.61 597.56,386.48 596.06,385.34 594.56,384.19 593.07,383.03 591.57,381.87 590.08,380.69 588.59,379.51 587.10,378.31 585.61,377.11 584.12,375.90 582.64,374.67 581.16,373.44 579.69,372.21 578.22,370.96 576.75,369.70 575.28,368.44 573.82,367.17 572.37,365.89 570.91,364.60 569.46,363.30 568.02,362.00 566.58,360.69 565.15,359.37 563.72,358.04 562.29,356.71 560.87,355.37 559.46,354.02 558.05,352.67 556.64,351.31 555.25,349.94 553.86,348.56 552.47,347.18 551.09,345.80 549.72,344.40 548.35,343.00 546.99,341.60 545.64,340.19 544.29,338.77 542.96,337.35 541.62,335.93 540.30,334.49 538.98,333.06 537.67,331.62 536.37,330.17 535.08,328.72 533.79,327.27 532.51,325.81 531.24,324.35 529.98,322.88 528.73,321.41 527.48,319.94 526.25,318.46 525.02,316.99 523.80,315.50 522.59,314.02 521.39,312.53 520.20,311.04 519.01,309.55 517.84,308.05 516.68,306.56 515.52,305.06 514.37,303.56 513.24,302.06 512.11,300.56 511.00,299.05 509.89,297.55 508.79,296.05 507.71,294.54 506.63,293.04 505.56,291.53 504.51,290.02 503.46,288.52 502.42,287.01 501.40,285.51 500.38,284.01 499.38,282.50 498.38,281.00 497.40,279.50 496.43,278.00 495.46,276.51 494.51,275.01 493.57,273.52 492.64,272.03 491.72,270.54 490.81,269.05 489.91,267.57 489.03,266.09 488.15,264.62 487.28,263.14 486.43,261.67 485.59,260.21 484.76,258.75 483.93,257.29 483.12,255.84 482.32,254.39 481.54,252.94 480.76,251.50 479.99,250.07 479.24,248.64 478.49,247.22 477.76,245.80 477.04,244.39 476.33,242.98 475.63,241.58 474.94,240.19 474.26,238.80 473.59,237.42 472.94,236.05 472.29,234.69 471.66,233.33 471.04,231.98 470.42,230.63 469.82,229.30 469.23,227.97 468.65,226.65 468.08,225.34 467.52,224.04 466.97,222.74 466.44,221.46 465.91,220.18 465.39,218.91 464.88,217.66 464.39,216.41 463.90,215.17 463.43,213.94 462.96,212.72 462.51,211.52 462.06,210.32 461.63,209.13 461.20,207.96 460.79,206.79 460.38,205.64 459.98,204.49 459.60,203.36 459.22,202.24 458.85,201.13 458.50,200.03 458.15,198.95 457.81,197.88 457.48,196.82 457.15,195.77 456.84,194.73 456.54,193.71 456.24,192.70 455.96,191.70 455.68,190.72 455.41,189.75 455.15,188.79 454.90,187.85 454.65,186.91 454.42,186.00 454.19,185.10 453.97,184.21 453.75,183.33 453.55,182.47 453.35,181.63 453.16,180.79 452.97,179.98 452.80,179.17 452.63,178.39 452.46,177.62 452.31,176.86 452.16,176.12 452.02,175.39 451.88,174.68 451.75,173.98 451.62,173.30 451.51,172.64 451.39,171.99 451.29,171.35 451.19,170.74 451.09,170.13 451.00,169.55 450.91,168.98 450.83,168.43 450.76,167.89 450.69,167.37 450.62,166.87 450.56,166.38 450.50,165.91 450.44,165.46 450.40,165.02 450.35,164.60 450.31,164.20 450.27,163.81 450.23,163.44 450.20,163.09 450.17,162.75 450.15,162.43 450.12,162.13 450.10,161.85 450.08,161.58 450.07,161.33 450.05,161.10 450.04,160.89 450.03,160.69 450.02,160.51 450.02,160.35 450.01,160.20 450.01,160.08 450.00,159.97 450.00,159.88 450.00,159.80 450.00,159.74 450.00,159.70 450.00,159.68 450.00,159.68 450.00,159.69 450.00,159.72 450.00,159.77 450.00,159.84 450.00,159.92 449.99,160.02 449.99,160.14 449.98,160.27 449.98,160.43 449.97,160.60 449.96,160.79 449.95,160.99 449.94,161.22 449.92,161.46 449.91,161.71 449.89,161.99 449.86,162.28 449.84,162.59 449.81,162.92 449.78,163.26 449.75,163.62 449.71,164.00 449.67,164.40 449.63,164.81 449.58,165.24 449.53,165.68 449.47,166.14 449.41,166.62 449.35,167.12 449.28,167.63 449.20,168.16 449.13,168.70 449.04,169.26 448.95,169.84 448.86,170.43 448.76,171.04 448.66,171.67 448.55,172.31 448.43,172.97 448.31,173.64 448.18,174.33 448.05,175.03 447.91,175.75 447.76,176.48 447.61,177.23 447.45,178.00 447.29,178.78 447.11,179.57 446.93,180.38 446.75,181.21 446.55,182.05 446.35,182.90 446.14,183.77 445.92,184.65 445.70,185.54 445.47,186.45 445.22,187.38 444.98,188.32 444.72,189.27 444.45,190.23 444.18,191.21 443.90,192.20 443.61,193.20 443.31,194.22 443.00,195.25 442.68,196.29 442.36,197.34 442.02,198.41 441.68,199.49 441.32,200.58 440.96,201.68 440.59,202.80 440.21,203.92 439.82,205.06 439.42,206.21 439.01,207.37 438.59,208.54 438.16,209.72 437.71,210.92 437.26,212.12 436.80,213.33 436.33,214.56 435.85,215.79 435.36,217.03 434.86,218.28 434.35,219.55 433.83,220.82 433.29,222.10 432.75,223.39 432.20,224.69 431.63,225.99 431.06,227.31 430.47,228.63 429.88,229.96 429.27,231.30 428.65,232.65 428.02,234.01 427.38,235.37 426.73,236.74 426.07,238.11 425.40,239.50 424.72,240.89 424.02,242.28 423.32,243.69 422.60,245.09 421.87,246.51 421.13,247.93 420.38,249.36 419.62,250.79 418.85,252.22 418.07,253.67 417.28,255.11 416.47,256.56 415.65,258.02 414.83,259.48 413.99,260.94 413.14,262.41 412.28,263.88 411.41,265.35 410.53,266.83 409.64,268.31 408.73,269.80 407.82,271.28 406.89,272.77 405.96,274.27 405.01,275.76 404.05,277.25 403.09,278.75 402.11,280.25 401.12,281.75 400.12,283.25 399.11,284.76 398.09,286.26 397.06,287.77 396.02,289.27 394.97,290.78 393.90,292.28 392.83,293.79 391.75,295.29 390.66,296.80 389.56,298.30 388.44,299.81 387.32,301.31 386.19,302.81 385.05,304.31 383.90,305.81 382.74,307.31 381.57,308.80 380.39,310.29 379.21,311.79 378.01,313.27 376.80,314.76 375.59,316.24 374.37,317.73 373.13,319.20 371.89,320.68 370.64,322.15 369.39,323.62 368.12,325.08 366.85,326.54 365.56,328.00 364.27,329.45 362.98,330.90 361.67,332.34 360.36,333.78 359.04,335.21 357.71,336.64 356.37,338.06 355.03,339.48 353.68,340.89 352.33,342.30 350.96,343.70 349.59,345.10 348.22,346.49 346.84,347.87 345.45,349.25 344.05,350.62 342.65,351.99 341.25,353.34 339.83,354.70 338.42,356.04 337.00,357.38 335.57,358.71 334.14,360.03 332.70,361.34 331.26,362.65 329.81,363.95 328.36,365.24 326.90,366.53 325.44,367.80 323.98,369.07 322.51,370.33 321.04,371.58 319.57,372.83 318.09,374.06 316.61,375.29 315.13,376.50 313.65,377.71 312.16,378.91 310.67,380.10 309.17,381.28 307.68,382.45 306.18,383.61 304.68,384.77 303.18,385.91 301.68,387.04 300.18,388.17 298.68,389.28 297.17,390.38 295.67,391.48 294.16,392.56 292.66,393.64 291.15,394.70 289.65,395.76 288.14,396.80 286.64,397.83 285.13,398.86 283.63,399.87 282.13,400.87 280.63,401.86 279.13,402.84 277.63,403.82 276.13,404.77 274.64,405.72 273.15,406.66 271.66,407.59 270.17,408.51 268.68,409.41 267.20,410.31 265.72,411.19 264.25,412.07 262.77,412.93 261.31,413.78 259.84,414.62 258.38,415.45 256.92,416.27 255.47,417.08 254.03,417.87 252.58,418.66 251.14,419.43 249.71,420.20 248.28,420.95 246.86,421.69 245.45,422.42 244.04,423.14 242.63,423.85 241.23,424.54 239.84,425.23 238.46,425.91 237.08,426.57 235.71,427.22 234.34,427.87 232.99,428.50 231.64,429.12 230.30,429.73 228.96,430.33 227.64,430.91 226.32,431.49 225.01,432.06 223.71,432.62 222.42,433.16 221.14,433.70 219.86,434.22 218.60,434.74 217.34,435.24 216.10,435.73 214.86,436.22 213.64,436.69 212.42,437.15 211.21,437.60 210.02,438.05 208.84,438.48 207.66,438.90 206.50,439.32 205.35,439.72 204.21,440.11 203.08,440.50 201.96,440.87 200.85,441.24 199.76,441.59 198.68,441.94 197.61,442.28 196.55,442.60 195.51,442.92 194.47,443.23 193.45,443.53 192.45,443.83 191.45,444.11 190.47,444.39 189.50,444.65 188.55,444.91 187.61,445.16 186.68,445.41 185.77,445.64 184.87,445.87 183.99,446.09 183.11,446.30 182.26,446.50 181.42,446.70 180.59,446.89 179.77,447.07 178.98,447.24 178.19,447.41 177.42,447.57 176.67,447.73 175.93,447.88 175.21,448.02 174.50,448.15 173.81,448.28 173.13,448.40 172.47,448.52 171.83,448.63 171.20,448.74 170.58,448.84 169.99,448.93 169.40,449.02 168.84,449.11 168.29,449.19 167.76,449.26 167.24,449.33 166.74,449.40 166.26,449.46 165.79,449.51 165.34,449.57 164.91,449.62 164.50,449.66 164.10,449.70 163.71,449.74 163.35,449.77 163.00,449.81 162.67,449.83 162.36,449.86 162.06,449.88 161.78,449.90 161.52,449.92 161.27,449.94 161.05,449.95 160.84,449.96 160.64,449.97 160.47,449.98 160.31,449.98 160.17,449.99 160.05,449.99 159.94,450.00 159.85,450.00 159.78,450.00 159.73,450.00 159.70,450.00 159.68,450.00 159.68,450.00 159.70,450.00 159.73,450.00 159.78,450.00 159.85,450.00 159.94,450.00 160.05,450.01 160.17,450.01 160.31,450.02 160.47,450.02 160.64,450.03 160.84,450.04 161.05,450.05 161.27,450.06 161.52,450.08 161.78,450.10 162.06,450.12 162.36,450.14 162.67,450.17 163.00,450.19 163.35,450.23 163.71,450.26 164.10,450.30 164.50,450.34 164.91,450.38 165.34,450.43 165.79,450.49 166.26,450.54 166.74,450.60 167.24,450.67 167.76,450.74 168.29,450.81 168.84,450.89 169.40,450.98 169.99,451.07 170.58,451.16 171.20,451.26 171.83,451.37 172.47,451.48 173.13,451.60 173.81,451.72 174.50,451.85 175.21,451.98 175.93,452.12 176.67,452.27 177.42,452.43 178.19,452.59 178.98,452.76 179.77,452.93 180.59,453.11 181.42,453.30 182.26,453.50 183.11,453.70 183.99,453.91 184.87,454.13 185.77,454.36 186.68,454.59 187.61,454.84 188.55,455.09 189.50,455.35 190.47,455.61 191.45,455.89 192.45,456.17 193.45,456.47 194.47,456.77 195.51,457.08 196.55,457.40 197.61,457.72 198.68,458.06 199.76,458.41 200.85,458.76 201.96,459.13 203.08,459.50 204.21,459.89 205.35,460.28 206.50,460.68 207.66,461.10 208.84,461.52 210.02,461.95 211.21,462.40 212.42,462.85 213.64,463.31 214.86,463.78 216.10,464.27 217.34,464.76 218.60,465.26 219.86,465.78 221.14,466.30 222.42,466.84 223.71,467.38 225.01,467.94 226.32,468.51 227.64,469.09 228.96,469.67 230.30,470.27 231.64,470.88 232.99,471.50 234.34,472.13 235.71,472.78 237.08,473.43 238.46,474.09 239.84,474.77 241.23,475.46 242.63,476.15 244.04,476.86 245.45,477.58 246.86,478.31 248.28,479.05 249.71,479.80 251.14,480.57 252.58,481.34 254.03,482.13 255.47,482.92 256.92,483.73 258.38,484.55 259.84,485.38 261.31,486.22 262.77,487.07 264.25,487.93 265.72,488.81 267.20,489.69 268.68,490.59 270.17,491.49 271.66,492.41 273.15,493.34 274.64,494.28 276.13,495.23 277.63,496.18 279.13,497.16 280.63,498.14 282.13,499.13 283.63,500.13 285.13,501.14 286.64,502.17 288.14,503.20 289.65,504.24 291.15,505.30 292.66,506.36 294.16,507.44 295.67,508.52 297.17,509.62 298.68,510.72 300.18,511.83 301.68,512.96 303.18,514.09 304.68,515.23 306.18,516.39 307.68,517.55 309.17,518.72 310.67,519.90 312.16,521.09 313.65,522.29 315.13,523.50 316.61,524.71 318.09,525.94 319.57,527.17 321.04,528.42 322.51,529.67 323.98,530.93 325.44,532.20 326.90,533.47 328.36,534.76 329.81,536.05 331.26,537.35 332.70,538.66 334.14,539.97 335.57,541.29 337.00,542.62 338.42,543.96 339.83,545.30 341.25,546.66 342.65,548.01 344.05,549.38 345.45,550.75 346.84,552.13 348.22,553.51 349.59,554.90 350.96,556.30 352.33,557.70 353.68,559.11 355.03,560.52 356.37,561.94 357.71,563.36 359.04,564.79 360.36,566.22 361.67,567.66 362.98,569.10 364.27,570.55 365.56,572.00 366.85,573.46 368.12,574.92 369.39,576.38 370.64,577.85 371.89,579.32 373.13,580.80 374.37,582.27 375.59,583.76 376.80,585.24 378.01,586.73 379.21,588.21 380.39,589.71 381.57,591.20 382.74,592.69 383.90,594.19 385.05,595.69 386.19,597.19 387.32,598.69 388.44,600.19 389.56,601.70 390.66,603.20 391.75,604.71 392.83,606.21 393.90,607.72 394.97,609.22 396.02,610.73 397.06,612.23 398.09,613.74 399.11,615.24 400.12,616.75 401.12,618.25 402.11,619.75 403.09,621.25 404.05,622.75 405.01,624.24 405.96,625.73 406.89,627.23 407.82,628.72 408.73,630.20 409.64,631.69 410.53,633.17 411.41,634.65 412.28,636.12 413.14,637.59 413.99,639.06 414.83,640.52 415.65,641.98 416.47,643.44 417.28,644.89 418.07,646.33 418.85,647.78 419.62,649.21 420.38,650.64 421.13,652.07 421.87,653.49 422.60,654.91 423.32,656.31 424.02,657.72 424.72,659.11 425.40,660.50 426.07,661.89 426.73,663.26 427.38,664.63 428.02,665.99 428.65,667.35 429.27,668.70 429.88,670.04 430.47,671.37 431.06,672.69 431.63,674.01 432.20,675.31 432.75,676.61 433.29,677.90 433.83,679.18 434.35,680.45 434.86,681.72 435.36,682.97 435.85,684.21 436.33,685.44 436.80,686.67 437.26,687.88 437.71,689.08 438.16,690.28 438.59,691.46 439.01,692.63 439.42,693.79 439.82,694.94 440.21,696.08 440.59,697.20 440.96,698.32 441.32,699.42 441.68,700.51 442.02,701.59 442.36,702.66 442.68,703.71 443.00,704.75 443.31,705.78 443.61,706.80 443.90,707.80 444.18,708.79 444.45,709.77 444.72,710.73 444.98,711.68 445.22,712.62 445.47,713.55 445.70,714.46 445.92,715.35 446.14,716.23 446.35,717.10 446.55,717.95 446.75,718.79 446.93,719.62 447.11,720.43 447.29,721.22 447.45,722.00 447.61,722.77 447.76,723.52 447.91,724.25 448.05,724.97 448.18,725.67 448.31,726.36 448.43,727.03 448.55,727.69 448.66,728.33 448.76,728.96 448.86,729.57 448.95,730.16 449.04,730.74 449.13,731.30 449.20,731.84 449.28,732.37 449.35,732.88 449.41,733.38 449.47,733.86 449.53,734.32 449.58,734.76 449.63,735.19 449.67,735.60 449.71,736.00 449.75,736.38 449.78,736.74 449.81,737.08 449.84,737.41 449.86,737.72 449.89,738.01 449.91,738.29 449.92,738.54 449.94,738.78 449.95,739.01 449.96,739.21 449.97,739.40 449.98,739.57 449.98,739.73 449.99,739.86 449.99,739.98 450.00,740.08 450.00,740.16 450.00,740.23 450.00,740.28 450.00,740.31 450.00,740.32 450.00,740.32 450.00,740.30 450.00,740.26 450.00,740.20 450.00,740.12 450.00,740.03 450.01,739.92 450.01,739.80 450.02,739.65 450.02,739.49 450.03,739.31 450.04,739.11 450.05,738.90 450.07,738.67 450.08,738.42 450.10,738.15 450.12,737.87 450.15,737.57 450.17,737.25 450.20,736.91 450.23,736.56 450.27,736.19 450.31,735.80 450.35,735.40 450.40,734.98 450.44,734.54 450.50,734.09 450.56,733.62 450.62,733.13 450.69,732.63 450.76,732.11 450.83,731.57 450.91,731.02 451.00,730.45 451.09,729.87 451.19,729.26 451.29,728.65 451.39,728.01 451.51,727.36 451.62,726.70 451.75,726.02 451.88,725.32 452.02,724.61 452.16,723.88 452.31,723.14 452.46,722.38 452.63,721.61 452.80,720.83 452.97,720.02 453.16,719.21 453.35,718.37 453.55,717.53 453.75,716.67 453.97,715.79 454.19,714.90 454.42,714.00 454.65,713.09 454.90,712.15 455.15,711.21 455.41,710.25 455.68,709.28 455.96,708.30 456.24,707.30 456.54,706.29 456.84,705.27 457.15,704.23 457.48,703.18 457.81,702.12 458.15,701.05 458.50,699.97 458.85,698.87 459.22,697.76 459.60,696.64 459.98,695.51 460.38,694.36 460.79,693.21 461.20,692.04 461.63,690.87 462.06,689.68 462.51,688.48 462.96,687.28 463.43,686.06 463.90,684.83 464.39,683.59 464.88,682.34 465.39,681.09 465.91,679.82 466.44,678.54 466.97,677.26 467.52,675.96 468.08,674.66 468.65,673.35 469.23,672.03 469.82,670.70 470.42,669.37 471.04,668.02 471.66,666.67 472.29,665.31 472.94,663.95 473.59,662.58 474.26,661.20 474.94,659.81 475.63,658.42 476.33,657.02 477.04,655.61 477.76,654.20 478.49,652.78 479.24,651.36 479.99,649.93 480.76,648.50 481.54,647.06 482.32,645.61 483.12,644.16 483.93,642.71 484.76,641.25 485.59,639.79 486.43,638.33 487.28,636.86 488.15,635.38 489.03,633.91 489.91,632.43 490.81,630.95 491.72,629.46 492.64,627.97 493.57,626.48 494.51,624.99 495.46,623.49 496.43,622.00 497.40,620.50 498.38,619.00 499.38,617.50 500.38,615.99 501.40,614.49 502.42,612.99 503.46,611.48 504.51,609.98 505.56,608.47 506.63,606.96 507.71,605.46 508.79,603.95 509.89,602.45 511.00,600.95 512.11,599.44 513.24,597.94 514.37,596.44 515.52,594.94 516.68,593.44 517.84,591.95 519.01,590.45 520.20,588.96 521.39,587.47 522.59,585.98 523.80,584.50 525.02,583.01 526.25,581.54 527.48,580.06 528.73,578.59 529.98,577.12 531.24,575.65 532.51,574.19 533.79,572.73 535.08,571.28 536.37,569.83 537.67,568.38 538.98,566.94 540.30,565.51 541.62,564.07 542.96,562.65 544.29,561.23 545.64,559.81 546.99,558.40 548.35,557.00 549.72,555.60 551.09,554.20 552.47,552.82 553.86,551.44 555.25,550.06 556.64,548.69 558.05,547.33 559.46,545.98 560.87,544.63 562.29,543.29 563.72,541.96 565.15,540.63 566.58,539.31 568.02,538.00 569.46,536.70 570.91,535.40 572.37,534.11 573.82,532.83 575.28,531.56 576.75,530.30 578.22,529.04 579.69,527.79 581.16,526.56 582.64,525.33 584.12,524.10 585.61,522.89 587.10,521.69 588.59,520.49 590.08,519.31 591.57,518.13 593.07,516.97 594.56,515.81 596.06,514.66 597.56,513.52 599.07,512.39 600.57,511.28 602.07,510.17 603.58,509.07 605.08,507.98 606.59,506.90 608.09,505.83 609.60,504.77 611.10,503.72 612.61,502.68 614.11,501.65 615.62,500.64 617.12,499.63 618.62,498.63 620.12,497.64 621.62,496.67 623.12,495.70 624.61,494.75 626.11,493.81 627.60,492.87 629.09,491.95 630.57,491.04 632.06,490.14 633.54,489.25 635.01,488.37 636.49,487.50 637.96,486.64 639.42,485.80 640.89,484.96 642.35,484.14 643.80,483.33 645.25,482.52 646.69,481.73 648.13,480.95 649.57,480.18 651.00,479.43 652.42,478.68 653.84,477.94 655.26,477.22 656.66,476.51 658.07,475.80 659.46,475.11 660.85,474.43 662.23,473.76 663.61,473.10 664.97,472.45 666.33,471.82 667.69,471.19 669.03,470.58 670.37,469.97 671.70,469.38 673.02,468.80 674.33,468.22 675.64,467.66 676.93,467.11 678.22,466.57 679.50,466.04 680.77,465.52 682.03,465.01 683.28,464.51 684.52,464.02 685.75,463.55 686.97,463.08 688.18,462.62 689.38,462.17 690.57,461.74 691.75,461.31 692.92,460.89 694.08,460.48 695.22,460.08 696.36,459.69 697.48,459.31 698.59,458.95 699.69,458.58 700.78,458.23 701.86,457.89 702.92,457.56 703.97,457.24 705.01,456.92 706.04,456.61 707.05,456.32 708.05,456.03 709.04,455.75 710.01,455.48 710.97,455.21 711.92,454.96 712.85,454.71 713.77,454.47 714.68,454.24 715.57,454.02 716.45,453.81 717.31,453.60 718.16,453.40 719.00,453.21 719.82,453.02 720.62,452.84 721.42,452.67 722.19,452.51 722.95,452.35 723.70,452.20 724.43,452.05 725.15,451.91 725.85,451.78 726.53,451.66 727.20,451.54 727.85,451.42 728.49,451.31 729.11,451.21 729.72,451.11 730.30,451.02 730.88,450.93 731.43,450.85 731.98,450.78 732.50,450.70 733.01,450.64 733.50,450.57 733.97,450.51 734.43,450.46 734.87,450.41 735.30,450.36 735.70,450.32 736.09,450.28 736.47,450.24 736.82,450.21 737.16,450.18 737.49,450.15 737.79,450.13 738.08,450.11 738.35,450.09 738.60,450.07 738.84,450.06 739.06,450.05 739.26,450.03 739.44,450.03 739.61,450.02 739.76,450.01 739.89,450.01 740.01,450.01 740.10,450.00 740.18,450.00 740.24,450.00 740.29,450.00 740.31,450.00 740.32,450.00" fill="none" stroke="#265cab" stroke-width="7" stroke-linecap="round" stroke-linejoin="round"/>
<polygon points="472.94,236.05 490.10,249.82 472.87,258.05" fill="#265cab"/>
<polygon points="235.71,427.22 249.50,410.08 257.71,427.31" fill="#265cab"/>
<polygon points="427.38,664.63 410.26,650.82 427.50,642.63" fill="#265cab"/>
<polygon points="664.97,472.45 651.15,489.57 642.97,472.31" fill="#265cab"/>
</svg>