<svg xmlns="http://www.w3.org/2000/svg" width="900" height="900" viewBox="0 0 900 900">
<rect width="100%" height="100%" fill="#ffffff"/>
<line x1="159.68" y1="810.00" x2="159.68" y2="90.00" stroke="#232323" stroke-width="3"/>
<line x1="90.00" y1="450.00" x2="810.00" y2="450.00" stroke="#232323" stroke-width="3"/>
<polyline points="740.32,643.55 737.74,643.12 735.17,642.69 732.60,642.26 730.03,641.83 727.48,641.40 724.92,640.97 722.38,640.53 719.84,640.10 717.30,639.67 714.77,639.24 712.25,638.81 709.73,638.38 707.22,637.95 704.72,637.52 702.22,637.09 699.72,636.66 697.23,636.23 694.75,635.80 692.27,635.37 689.80,634.94 687.34,634.51 684.88,634.08 682.42,633.65 679.97,633.21 677.53,632.78 675.09,632.35 672.66,631.92 670.24,631.49 667.82,631.06 665.40,630.63 663.00,630.20 660.59,629.77 658.20,629.34 655.81,628.91 653.42,628.48 651.04,628.05 648.67,627.62 646.30,627.19 643.94,626.76 641.58,626.33 639.23,625.89 636.88,625.46 634.54,625.03 632.21,624.60 629.88,624.17 627.56,623.74 625.25,623.31 622.93,622.88 620.63,622.45 618.33,622.02 616.04,621.59 613.75,621.16 611.47,620.73 609.19,620.30 606.92,619.87 604.66,619.44 602.40,619.01 600.15,618.57 597.90,618.14 595.66,617.71 593.42,617.28 591.19,616.85 588.97,616.42 586.75,615.99 584.54,615.56 582.33,615.13 580.13,614.70 577.93,614.27 575.74,613.84 573.56,613.41 571.38,612.98 569.21,612.55 567.04,612.12 564.88,611.69 562.72,611.25 560.57,610.82 558.43,610.39 556.29,609.96 554.16,609.53 552.03,609.10 549.91,608.67 547.80,608.24 545.69,607.81 543.58,607.38 541.49,606.95 539.39,606.52 537.31,606.09 535.23,605.66 533.15,605.23 531.08,604.80 529.02,604.37 526.96,603.93 524.91,603.50 522.86,603.07 520.82,602.64 518.79,602.21 516.76,601.78 514.74,601.35 512.72,600.92 510.71,600.49 508.70,600.06 506.70,599.63 504.71,599.20 502.72,598.77 500.74,598.34 498.76,597.91 496.79,597.48 494.82,597.05 492.86,596.61 490.91,596.18 488.96,595.75 487.02,595.32 485.08,594.89 483.15,594.46 481.22,594.03 479.30,593.60 477.39,593.17 475.48,592.74 473.58,592.31 471.68,591.88 469.79,591.45 467.91,591.02 466.03,590.59 464.15,590.16 462.29,589.73 460.42,589.29 458.57,588.86 456.72,588.43 454.87,588.00 453.03,587.57 451.20,587.14 449.37,586.71 447.55,586.28 445.73,585.85 443.92,585.42 442.12,584.99 440.32,584.56 438.53,584.13 436.74,583.70 434.96,583.27 433.18,582.84 431.41,582.41 429.65,581.97 427.89,581.54 426.13,581.11 424.39,580.68 422.64,580.25 420.91,579.82 419.18,579.39 417.45,578.96 415.74,578.53 414.02,578.10 412.32,577.67 410.61,577.24 408.92,576.81 407.23,576.38 405.55,575.95 403.87,575.52 402.19,575.09 400.53,574.65 398.87,574.22 397.21,573.79 395.56,573.36 393.92,572.93 392.28,572.50 390.65,572.07 389.02,571.64 387.40,571.21 385.79,570.78 384.18,570.35 382.57,569.92 380.97,569.49 379.38,569.06 377.80,568.63 376.22,568.20 374.64,567.77 373.07,567.33 371.51,566.90 369.95,566.47 368.40,566.04 366.85,565.61 365.31,565.18 363.78,564.75 362.25,564.32 360.73,563.89 359.21,563.46 357.70,563.03 356.19,562.60 354.69,562.17 353.20,561.74 351.71,561.31 350.23,560.88 348.75,560.45 347.28,560.01 345.81,559.58 344.35,559.15 342.90,558.72 341.45,558.29 340.01,557.86 338.57,557.43 337.14,557.00 335.71,556.57 334.29,556.14 332.88,555.71 331.47,555.28 330.07,554.85 328.67,554.42 327.28,553.99 325.90,553.56 324.52,553.13 323.14,552.69 321.78,552.26 320.41,551.83 319.06,551.40 317.71,550.97 316.36,550.54 315.02,550.11 313.69,549.68 312.36,549.25 311.04,548.82 309.72,548.39 308.41,547.96 307.11,547.53 305.81,547.10 304.52,546.67 303.23,546.24 301.95,545.81 300.67,545.37 299.40,544.94 298.14,544.51 296.88,544.08 295.62,543.65 294.38,543.22 293.14,542.79 291.90,542.36 290.67,541.93 289.45,541.50 288.23,541.07 287.01,540.64 285.81,540.21 284.61,539.78 283.41,539.35 282.22,538.92 281.04,538.49 279.86,538.05 278.69,537.62 277.52,537.19 276.36,536.76 275.20,536.33 274.05,535.90 272.91,535.47 271.77,535.04 270.64,534.61 269.51,534.18 268.39,533.75 267.28,533.32 266.17,532.89 265.06,532.46 263.97,532.03 262.87,531.60 261.79,531.17 260.71,530.73 259.63,530.30 258.56,529.87 257.50,529.44 256.44,529.01 255.39,528.58 254.35,528.15 253.30,527.72 252.27,527.29 251.24,526.86 250.22,526.43 249.20,526.00 248.19,525.57 247.18,525.14 246.18,524.71 245.19,524.28 244.20,523.85 243.22,523.41 242.24,522.98 241.27,522.55 240.30,522.12 239.34,521.69 238.39,521.26 237.44,520.83 236.50,520.40 235.56,519.97 234.63,519.54 233.71,519.11 232.79,518.68 231.87,518.25 230.96,517.82 230.06,517.39 229.17,516.96 228.27,516.53 227.39,516.10 226.51,515.66 225.64,515.23 224.77,514.80 223.91,514.37 223.05,513.94 222.20,513.51 221.35,513.08 220.52,512.65 219.68,512.22 218.85,511.79 218.03,511.36 217.22,510.93 216.41,510.50 215.60,510.07 214.80,509.64 214.01,509.21 213.22,508.78 212.44,508.34 211.66,507.91 210.89,507.48 210.13,507.05 209.37,506.62 208.62,506.19 207.87,505.76 207.13,505.33 206.39,504.90 205.66,504.47 204.94,504.04 204.22,503.61 203.51,503.18 202.80,502.75 202.10,502.32 201.40,501.89 200.71,501.46 200.03,501.02 199.35,500.59 198.68,500.16 198.01,499.73 197.35,499.30 196.70,498.87 196.05,498.44 195.40,498.01 194.77,497.58 194.13,497.15 193.51,496.72 192.89,496.29 192.27,495.86 191.66,495.43 191.06,495.00 190.46,494.57 189.87,494.14 189.28,493.70 188.70,493.27 188.13,492.84 187.56,492.41 187.00,491.98 186.44,491.55 185.89,491.12 185.34,490.69 184.80,490.26 184.27,489.83 183.74,489.40 183.21,488.97 182.70,488.54 182.18,488.11 181.68,487.68 181.18,487.25 180.68,486.82 180.20,486.38 179.71,485.95 179.24,485.52 178.76,485.09 178.30,484.66 177.84,484.23 177.39,483.80 176.94,483.37 176.49,482.94 176.06,482.51 175.63,482.08 175.20,481.65 174.78,481.22 174.37,480.79 173.96,480.36 173.56,479.93 173.16,479.50 172.77,479.06 172.39,478.63 172.01,478.20 171.63,477.77 171.26,477.34 170.90,476.91 170.55,476.48 170.20,476.05 169.85,475.62 169.51,475.19 169.18,474.76 168.85,474.33 168.53,473.90 168.21,473.47 167.90,473.04 167.60,472.61 167.30,472.18 167.01,471.74 166.72,471.31 166.44,470.88 166.16,470.45 165.89,470.02 165.63,469.59 165.37,469.16 165.11,468.73 164.87,468.30 164.63,467.87 164.39,467.44 164.16,467.01 163.94,466.58 163.72,466.15 163.51,465.72 163.30,465.29 163.10,464.86 162.90,464.42 162.71,463.99 162.53,463.56 162.35,463.13 162.18,462.70 162.01,462.27 161.85,461.84 161.69,461.41 161.55,460.98 161.40,460.55 161.26,460.12 161.13,459.69 161.01,459.26 160.88,458.83 160.77,458.40 160.66,457.97 160.56,457.54 160.46,457.10 160.37,456.67 160.28,456.24 160.20,455.81 160.13,455.38 160.06,454.95 159.99,454.52 159.94,454.09 159.88,453.66 159.84,453.23 159.80,452.80 159.76,452.37 159.73,451.94 159.71,451.51 159.69,451.08 159.68,450.65 159.68,450.22 159.68,449.78 159.68,449.35 159.69,448.92 159.71,448.49 159.73,448.06 159.76,447.63 159.80,447.20 159.84,446.77 159.88,446.34 159.94,445.91 159.99,445.48 160.06,445.05 160.13,444.62 160.20,444.19 160.28,443.76 160.37,443.33 160.46,442.90 160.56,442.46 160.66,442.03 160.77,441.60 160.88,441.17 161.01,440.74 161.13,440.31 161.26,439.88 161.40,439.45 161.55,439.02 161.69,438.59 161.85,438.16 162.01,437.73 162.18,437.30 162.35,436.87 162.53,436.44 162.71,436.01 162.90,435.58 163.10,435.14 163.30,434.71 163.51,434.28 163.72,433.85 163.94,433.42 164.16,432.99 164.39,432.56 164.63,432.13 164.87,431.70 165.11,431.27 165.37,430.84 165.63,430.41 165.89,429.98 166.16,429.55 166.44,429.12 166.72,428.69 167.01,428.26 167.30,427.82 167.60,427.39 167.90,426.96 168.21,426.53 168.53,426.10 168.85,425.67 169.18,425.24 169.51,424.81 169.85,424.38 170.20,423.95 170.55,423.52 170.90,423.09 171.26,422.66 171.63,422.23 172.01,421.80 172.39,421.37 172.77,420.94 173.16,420.50 173.56,420.07 173.96,419.64 174.37,419.21 174.78,418.78 175.20,418.35 175.63,417.92 176.06,417.49 176.49,417.06 176.94,416.63 177.39,416.20 177.84,415.77 178.30,415.34 178.76,414.91 179.24,414.48 179.71,414.05 180.20,413.62 180.68,413.18 181.18,412.75 181.68,412.32 182.18,411.89 182.70,411.46 183.21,411.03 183.74,410.60 184.27,410.17 184.80,409.74 185.34,409.31 185.89,408.88 186.44,408.45 187.00,408.02 187.56,407.59 188.13,407.16 188.70,406.73 189.28,406.30 189.87,405.86 190.46,405.43 191.06,405.00 191.66,404.57 192.27,404.14 192.89,403.71 193.51,403.28 194.13,402.85 194.77,402.42 195.40,401.99 196.05,401.56 196.70,401.13 197.35,400.70 198.01,400.27 198.68,399.84 199.35,399.41 200.03,398.98 200.71,398.54 201.40,398.11 202.10,397.68 202.80,397.25 203.51,396.82 204.22,396.39 204.94,395.96 205.66,395.53 206.39,395.10 207.13,394.67 207.87,394.24 208.62,393.81 209.37,393.38 210.13,392.95 210.89,392.52 211.66,392.09 212.44,391.66 213.22,391.22 214.01,390.79 214.80,390.36 215.60,389.93 216.41,389.50 217.22,389.07 218.03,388.64 218.85,388.21 219.68,387.78 220.52,387.35 221.35,386.92 222.20,386.49 223.05,386.06 223.91,385.63 224.77,385.20 225.64,384.77 226.51,384.34 227.39,383.90 228.27,383.47 229.17,383.04 230.06,382.61 230.96,382.18 231.87,381.75 232.79,381.32 233.71,380.89 234.63,380.46 235.56,380.03 236.50,379.60 237.44,379.17 238.39,378.74 239.34,378.31 240.30,377.88 241.27,377.45 242.24,377.02 243.22,376.59 244.20,376.15 245.19,375.72 246.18,375.29 247.18,374.86 248.19,374.43 249.20,374.00 250.22,373.57 251.24,373.14 252.27,372.71 253.30,372.28 254.35,371.85 255.39,371.42 256.44,370.99 257.50,370.56 258.56,370.13 259.63,369.70 260.71,369.27 261.79,368.83 262.87,368.40 263.97,367.97 265.06,367.54 266.17,367.11 267.28,366.68 268.39,366.25 269.51,365.82 270.64,365.39 271.77,364.96 272.91,364.53 274.05,364.10 275.20,363.67 276.36,363.24 277.52,362.81 278.69,362.38 279.86,361.95 281.04,361.51 282.22,361.08 283.41,360.65 284.61,360.22 285.81,359.79 287.01,359.36 288.23,358.93 289.45,358.50 290.67,358.07 291.90,357.64 293.14,357.21 294.38,356.78 295.62,356.35 296.88,355.92 298.14,355.49 299.40,355.06 300.67,354.63 301.95,354.19 303.23,353.76 304.52,353.33 305.81,352.90 307.11,352.47 308.41,352.04 309.72,351.61 311.04,351.18 312.36,350.75 313.69,350.32 315.02,349.89 316.36,349.46 317.71,349.03 319.06,348.60 320.41,348.17 321.78,347.74 323.14,347.31 324.52,346.87 325.90,346.44 327.28,346.01 328.67,345.58 330.07,345.15 331.47,344.72 332.88,344.29 334.29,343.86 335.71,343.43 337.14,343.00 338.57,342.57 340.01,342.14 341.45,341.71 342.90,341.28 344.35,340.85 345.81,340.42 347.28,339.99 348.75,339.55 350.23,339.12 351.71,338.69 353.20,338.26 354.69,337.83 356.19,337.40 357.70,336.97 359.21,336.54 360.73,336.11 362.25,335.68 363.78,335.25 365.31,334.82 366.85,334.39 368.40,333.96 369.95,333.53 371.51,333.10 373.07,332.67 374.64,332.23 376.22,331.80 377.80,331.37 379.38,330.94 380.97,330.51 382.57,330.08 384.18,329.65 385.79,329.22 387.40,328.79 389.02,328.36 390.65,327.93 392.28,327.50 393.92,327.07 395.56,326.64 397.21,326.21 398.87,325.78 400.53,325.35 402.19,324.91 403.87,324.48 405.55,324.05 407.23,323.62 408.92,323.19 410.61,322.76 412.32,322.33 414.02,321.90 415.74,321.47 417.45,321.04 419.18,320.61 420.91,320.18 422.64,319.75 424.39,319.32 426.13,318.89 427.89,318.46 429.65,318.03 431.41,317.59 433.18,317.16 434.96,316.73 436.74,316.30 438.53,315.87 440.32,315.44 442.12,315.01 443.92,314.58 445.73,314.15 447.55,313.72 449.37,313.29 451.20,312.86 453.03,312.43 454.87,312.00 456.72,311.57 458.57,311.14 460.42,310.71 462.29,310.27 464.15,309.84 466.03,309.41 467.91,308.98 469.79,308.55 471.68,308.12 473.58,307.69 475.48,307.26 477.39,306.83 479.30,306.40 481.22,305.97 483.15,305.54 485.08,305.11 487.02,304.68 488.96,304.25 490.91,303.82 492.86,303.39 494.82,302.95 496.79,302.52 498.76,302.09 500.74,301.66 502.72,301.23 504.71,300.80 506.70,300.37 508.70,299.94 510.71,299.51 512.72,299.08 514.74,298.65 516.76,298.22 518.79,297.79 520.82,297.36 522.86,296.93 524.91,296.50 526.96,296.07 529.02,295.63 531.08,295.20 533.15,294.77 535.23,294.34 537.31,293.91 539.39,293.48 541.49,293.05 543.58,292.62 545.69,292.19 547.80,291.76 549.91,291.33 552.03,290.90 554.16,290.47 556.29,290.04 558.43,289.61 560.57,289.18 562.72,288.75 564.88,288.31 567.04,287.88 569.21,287.45 571.38,287.02 573.56,286.59 575.74,286.16 577.93,285.73 580.13,285.30 582.33,284.87 584.54,284.44 586.75,284.01 588.97,283.58 591.19,283.15 593.42,282.72 595.66,282.29 597.90,281.86 600.15,281.43 602.40,280.99 604.66,280.56 606.92,280.13 609.19,279.70 611.47,279.27 613.75,278.84 616.04,278.41 618.33,277.98 620.63,277.55 622.93,277.12 625.25,276.69 627.56,276.26 629.88,275.83 632.21,275.40 634.54,274.97 636.88,274.54 639.23,274.11 641.58,273.67 643.94,273.24 646.30,272.81 648.67,272.38 651.04,271.95 653.42,271.52 655.81,271.09 658.20,270.66 660.59,270.23 663.00,269.80 665.40,269.37 667.82,268.94 670.24,268.51 672.66,268.08 675.09,267.65 677.53,267.22 679.97,266.79 682.42,266.35 684.88,265.92 687.34,265.49 689.80,265.06 692.27,264.63 694.75,264.20 697.23,263.77 699.72,263.34 702.22,262.91 704.72,262.48 707.22,262.05 709.73,261.62 712.25,261.19 714.77,260.76 717.30,260.33 719.84,259.90 722.38,259.47 724.92,259.03 727.48,258.60 730.03,258.17 732.60,257.74 735.17,257.31 737.74,256.88 740.32,256.45" fill="none" stroke="#265cab" stroke-width="7" stroke-linecap="round" stroke-linejoin="round"/>
<polygon points="305.81,547.10 325.64,544.53 320.18,561.00" fill="#265cab"/>
<polygon points="159.68,450.22 168.59,468.12 151.24,468.35" fill="#265cab"/>
<polygon points="341.45,341.71 326.66,355.18 321.70,338.55" fill="#265cab"/>
</svg>