<svg xmlns="http://www.w3.org/2000/svg" width="900" height="900" viewBox="0 0 900 900">
<rect width="100%" height="100%" fill="#ffffff"/>
<line x1="479.15" y1="810.00" x2="479.15" y2="90.00" stroke="#232323" stroke-width="3"/>
<line x1="90.00" y1="450.00" x2="810.00" y2="450.00" stroke="#232323" stroke-width="3"/>
<polyline points="662.31,450.00 662.31,450.00 662.34,450.00 662.37,450.00 662.42,450.00 662.49,449.99 662.57,449.99 662.67,449.98 662.78,449.97 662.90,449.96 663.04,449.94 663.20,449.93 663.37,449.90 663.55,449.88 663.75,449.85 663.96,449.81 664.18,449.77 664.42,449.73 664.67,449.68 664.94,449.62 665.22,449.56 665.51,449.49 665.82,449.42 666.14,449.33 666.48,449.24 666.82,449.15 667.18,449.04 667.56,448.92 667.94,448.80 668.34,448.67 668.75,448.53 669.17,448.38 669.60,448.22 670.05,448.05 670.50,447.87 670.97,447.68 671.45,447.48 671.94,447.26 672.44,447.04 672.95,446.80 673.47,446.56 674.00,446.30 674.54,446.02 675.10,445.74 675.65,445.44 676.22,445.13 676.80,444.81 677.39,444.47 677.98,444.12 678.58,443.76 679.19,443.38 679.81,442.98 680.43,442.58 681.07,442.15 681.70,441.72 682.35,441.26 683.00,440.80 683.66,440.31 684.32,439.82 684.98,439.30 685.66,438.77 686.33,438.22 687.01,437.66 687.70,437.08 688.39,436.49 689.08,435.88 689.77,435.25 690.47,434.60 691.17,433.94 691.87,433.26 692.58,432.56 693.28,431.85 693.99,431.12 694.69,430.37 695.40,429.61 696.11,428.82 696.81,428.02 697.52,427.20 698.23,426.37 698.93,425.51 699.63,424.64 700.33,423.75 701.03,422.84 701.73,421.92 702.42,420.98 703.11,420.01 703.79,419.04 704.47,418.04 705.15,417.02 705.82,415.99 706.49,414.94 707.15,413.87 707.81,412.79 708.46,411.69 709.10,410.57 709.74,409.43 710.36,408.27 710.99,407.10 711.60,405.91 712.21,404.70 712.80,403.47 713.39,402.23 713.97,400.97 714.54,399.70 715.10,398.41 715.65,397.10 716.19,395.77 716.72,394.43 717.23,393.07 717.74,391.70 718.23,390.31 718.72,388.90 719.18,387.48 719.64,386.04 720.08,384.59 720.51,383.12 720.93,381.64 721.33,380.14 721.72,378.63 722.10,377.10 722.46,375.56 722.80,374.01 723.13,372.44 723.44,370.86 723.74,369.27 724.02,367.66 724.28,366.04 724.53,364.41 724.76,362.76 724.97,361.11 725.17,359.44 725.35,357.76 725.51,356.07 725.65,354.36 725.77,352.65 725.88,350.93 725.96,349.19 726.03,347.45 726.08,345.70 726.10,343.94 726.11,342.16 726.10,340.38 726.07,338.60 726.02,336.80 725.94,335.00 725.85,333.19 725.73,331.37 725.60,329.54 725.44,327.71 725.26,325.87 725.06,324.03 724.84,322.18 724.60,320.33 724.34,318.47 724.05,316.60 723.74,314.74 723.41,312.87 723.06,310.99 722.68,309.11 722.28,307.23 721.86,305.35 721.42,303.47 720.95,301.58 720.46,299.69 719.95,297.81 719.41,295.92 718.85,294.03 718.27,292.14 717.67,290.25 717.04,288.36 716.39,286.48 715.72,284.59 715.02,282.71 714.30,280.83 713.55,278.96 712.79,277.08 712.00,275.21 711.18,273.35 710.35,271.48 709.49,269.63 708.61,267.77 707.70,265.93 706.77,264.09 705.82,262.25 704.85,260.42 703.85,258.60 702.83,256.79 701.79,254.98 700.72,253.18 699.63,251.39 698.53,249.61 697.39,247.83 696.24,246.07 695.06,244.32 693.87,242.57 692.65,240.84 691.40,239.12 690.14,237.40 688.86,235.70 687.55,234.02 686.23,232.34 684.88,230.68 683.51,229.02 682.13,227.39 680.72,225.76 679.29,224.15 677.84,222.55 676.37,220.97 674.89,219.40 673.38,217.85 671.85,216.31 670.31,214.79 668.75,213.29 667.17,211.80 665.57,210.32 663.95,208.87 662.32,207.43 660.66,206.01 658.99,204.60 657.31,203.21 655.61,201.85 653.89,200.50 652.15,199.16 650.40,197.85 648.64,196.56 646.86,195.28 645.06,194.03 643.25,192.80 641.42,191.58 639.59,190.39 637.73,189.21 635.87,188.06 633.99,186.93 632.10,185.82 630.19,184.73 628.28,183.66 626.35,182.61 624.41,181.59 622.46,180.59 620.50,179.60 618.53,178.65 616.55,177.71 614.56,176.80 612.56,175.91 610.55,175.04 608.53,174.20 606.50,173.37 604.47,172.58 602.43,171.80 600.38,171.05 598.33,170.32 596.26,169.62 594.20,168.94 592.12,168.28 590.04,167.65 587.96,167.04 585.87,166.46 583.78,165.90 581.68,165.36 579.58,164.85 577.48,164.36 575.37,163.90 573.26,163.46 571.15,163.04 569.04,162.65 566.93,162.29 564.81,161.94 562.70,161.62 560.58,161.33 558.47,161.06 556.36,160.82 554.24,160.59 552.13,160.40 550.02,160.22 547.91,160.07 545.81,159.95 543.70,159.85 541.61,159.77 539.51,159.71 537.42,159.68 535.33,159.68 533.25,159.69 531.17,159.73 529.10,159.80 527.03,159.88 524.97,159.99 522.91,160.12 520.87,160.28 518.83,160.45 516.79,160.65 514.77,160.87 512.75,161.12 510.74,161.38 508.74,161.67 506.75,161.98 504.77,162.31 502.80,162.66 500.83,163.03 498.88,163.43 496.94,163.84 495.01,164.27 493.09,164.73 491.19,165.20 489.29,165.70 487.41,166.21 485.54,166.74 483.68,167.29 481.83,167.86 480.00,168.45 478.18,169.06 476.38,169.68 474.59,170.33 472.81,170.99 471.05,171.67 469.30,172.36 467.57,173.07 465.85,173.80 464.15,174.54 462.47,175.30 460.80,176.08 459.14,176.87 457.51,177.67 455.88,178.49 454.28,179.33 452.69,180.17 451.12,181.04 449.57,181.91 448.03,182.80 446.51,183.70 445.01,184.61 443.53,185.54 442.07,186.48 440.62,187.42 439.19,188.38 437.78,189.35 436.39,190.34 435.02,191.33 433.67,192.33 432.33,193.34 431.02,194.36 429.72,195.38 428.44,196.42 427.19,197.46 425.95,198.52 424.73,199.58 423.53,200.64 422.35,201.71 421.19,202.79 420.05,203.88 418.92,204.97 417.82,206.06 416.74,207.16 415.68,208.27 414.64,209.38 413.61,210.49 412.61,211.61 411.63,212.73 410.66,213.85 409.72,214.97 408.79,216.10 407.89,217.23 407.00,218.36 406.14,219.49 405.29,220.62 404.47,221.75 403.66,222.88 402.87,224.01 402.10,225.14 401.35,226.27 400.62,227.40 399.91,228.52 399.22,229.65 398.55,230.77 397.89,231.88 397.25,233.00 396.64,234.11 396.04,235.22 395.45,236.32 394.89,237.42 394.34,238.52 393.82,239.61 393.30,240.69 392.81,241.77 392.33,242.85 391.88,243.91 391.43,244.97 391.01,246.03 390.60,247.07 390.20,248.11 389.83,249.14 389.47,250.17 389.12,251.18 388.79,252.19 388.48,253.19 388.18,254.18 387.89,255.16 387.62,256.13 387.37,257.09 387.12,258.04 386.90,258.98 386.68,259.91 386.48,260.83 386.29,261.74 386.12,262.64 385.95,263.52 385.80,264.40 385.66,265.26 385.54,266.11 385.42,266.95 385.32,267.78 385.22,268.59 385.14,269.39 385.07,270.18 385.00,270.96 384.95,271.72 384.91,272.47 384.87,273.20 384.85,273.93 384.83,274.63 384.82,275.33 384.82,276.01 384.82,276.68 384.84,277.33 384.86,277.97 384.88,278.59 384.92,279.20 384.95,279.79 385.00,280.37 385.05,280.94 385.10,281.49 385.16,282.02 385.23,282.54 385.29,283.05 385.36,283.54 385.44,284.02 385.52,284.48 385.60,284.92 385.68,285.35 385.76,285.77 385.85,286.17 385.93,286.55 386.02,286.92 386.11,287.28 386.20,287.61 386.29,287.94 386.38,288.25 386.46,288.54 386.55,288.82 386.64,289.09 386.72,289.33 386.80,289.57 386.88,289.79 386.96,289.99 387.03,290.18 387.10,290.36 387.17,290.52 387.23,290.67 387.29,290.80 387.34,290.92 387.39,291.03 387.43,291.12 387.47,291.19 387.50,291.26 387.53,291.31 387.55,291.35 387.56,291.37 387.57,291.38 387.57,291.38 387.56,291.36 387.54,291.34 387.52,291.30 387.48,291.24 387.44,291.18 387.39,291.10 387.33,291.02 387.26,290.92 387.18,290.81 387.09,290.69 386.99,290.56 386.88,290.42 386.76,290.26 386.63,290.10 386.49,289.93 386.33,289.75 386.17,289.56 385.99,289.36 385.80,289.15 385.60,288.93 385.38,288.70 385.15,288.47 384.91,288.23 384.66,287.98 384.39,287.72 384.11,287.46 383.82,287.19 383.51,286.92 383.19,286.63 382.85,286.34 382.50,286.05 382.13,285.75 381.75,285.45 381.36,285.14 380.95,284.83 380.53,284.51 380.09,284.19 379.63,283.87 379.16,283.54 378.68,283.21 378.18,282.88 377.66,282.55 377.13,282.21 376.58,281.87 376.02,281.54 375.44,281.20 374.84,280.86 374.23,280.52 373.60,280.18 372.96,279.84 372.30,279.51 371.62,279.17 370.93,278.83 370.22,278.50 369.50,278.17 368.76,277.84 368.00,277.52 367.23,277.20 366.44,276.88 365.63,276.56 364.81,276.25 363.97,275.95 363.12,275.65 362.25,275.35 361.36,275.06 360.46,274.78 359.54,274.50 358.60,274.23 357.65,273.97 356.69,273.71 355.71,273.47 354.71,273.23 353.70,272.99 352.67,272.77 351.63,272.55 350.57,272.35 349.50,272.15 348.42,271.97 347.31,271.79 346.20,271.63 345.07,271.47 343.92,271.33 342.77,271.20 341.59,271.08 340.41,270.97 339.21,270.87 338.00,270.79 336.77,270.72 335.53,270.66 334.28,270.62 333.02,270.59 331.74,270.57 330.45,270.57 329.15,270.58 327.84,270.61 326.52,270.66 325.18,270.71 323.84,270.79 322.48,270.88 321.12,270.98 319.74,271.11 318.35,271.25 316.96,271.40 315.55,271.57 314.14,271.76 312.71,271.97 311.28,272.20 309.84,272.44 308.39,272.70 306.94,272.98 305.47,273.28 304.00,273.60 302.53,273.93 301.04,274.29 299.55,274.66 298.06,275.05 296.56,275.47 295.05,275.90 293.54,276.35 292.02,276.83 290.50,277.32 288.98,277.83 287.45,278.36 285.92,278.92 284.38,279.49 282.85,280.09 281.31,280.70 279.77,281.34 278.22,282.00 276.68,282.68 275.14,283.38 273.59,284.10 272.05,284.84 270.50,285.60 268.96,286.39 267.41,287.20 265.87,288.02 264.33,288.87 262.79,289.75 261.25,290.64 259.72,291.55 258.19,292.49 256.66,293.45 255.14,294.43 253.62,295.43 252.11,296.45 250.60,297.50 249.09,298.56 247.59,299.65 246.10,300.76 244.62,301.89 243.14,303.04 241.66,304.21 240.20,305.41 238.74,306.62 237.29,307.86 235.85,309.12 234.42,310.39 233.00,311.69 231.58,313.01 230.18,314.35 228.79,315.71 227.40,317.09 226.03,318.50 224.67,319.92 223.32,321.36 221.99,322.82 220.66,324.30 219.35,325.80 218.05,327.32 216.76,328.86 215.49,330.41 214.23,331.99 212.99,333.59 211.76,335.20 210.55,336.83 209.35,338.48 208.16,340.15 206.99,341.83 205.84,343.53 204.71,345.25 203.59,346.99 202.49,348.74 201.40,350.51 200.33,352.29 199.28,354.10 198.25,355.91 197.24,357.74 196.24,359.59 195.27,361.45 194.31,363.33 193.37,365.22 192.45,367.13 191.56,369.04 190.68,370.98 189.82,372.92 188.98,374.88 188.17,376.85 187.37,378.83 186.60,380.83 185.84,382.83 185.11,384.85 184.40,386.88 183.71,388.92 183.05,390.96 182.40,393.02 181.78,395.09 181.18,397.17 180.60,399.26 180.05,401.35 179.52,403.46 179.01,405.57 178.53,407.69 178.07,409.81 177.63,411.95 177.22,414.09 176.83,416.23 176.46,418.38 176.12,420.54 175.80,422.70 175.51,424.87 175.24,427.04 174.99,429.21 174.77,431.39 174.58,433.57 174.40,435.76 174.26,437.95 174.13,440.13 174.04,442.33 173.96,444.52 173.91,446.71 173.89,448.90 173.89,451.10 173.91,453.29 173.96,455.48 174.04,457.67 174.13,459.87 174.26,462.05 174.40,464.24 174.58,466.43 174.77,468.61 174.99,470.79 175.24,472.96 175.51,475.13 175.80,477.30 176.12,479.46 176.46,481.62 176.83,483.77 177.22,485.91 177.63,488.05 178.07,490.19 178.53,492.31 179.01,494.43 179.52,496.54 180.05,498.65 180.60,500.74 181.18,502.83 181.78,504.91 182.40,506.98 183.05,509.04 183.71,511.08 184.40,513.12 185.11,515.15 185.84,517.17 186.60,519.17 187.37,521.17 188.17,523.15 188.98,525.12 189.82,527.08 190.68,529.02 191.56,530.96 192.45,532.87 193.37,534.78 194.31,536.67 195.27,538.55 196.24,540.41 197.24,542.26 198.25,544.09 199.28,545.90 200.33,547.71 201.40,549.49 202.49,551.26 203.59,553.01 204.71,554.75 205.84,556.47 206.99,558.17 208.16,559.85 209.35,561.52 210.55,563.17 211.76,564.80 212.99,566.41 214.23,568.01 215.49,569.59 216.76,571.14 218.05,572.68 219.35,574.20 220.66,575.70 221.99,577.18 223.32,578.64 224.67,580.08 226.03,581.50 227.40,582.91 228.79,584.29 230.18,585.65 231.58,586.99 233.00,588.31 234.42,589.61 235.85,590.88 237.29,592.14 238.74,593.38 240.20,594.59 241.66,595.79 243.14,596.96 244.62,598.11 246.10,599.24 247.59,600.35 249.09,601.44 250.60,602.50 252.11,603.55 253.62,604.57 255.14,605.57 256.66,606.55 258.19,607.51 259.72,608.45 261.25,609.36 262.79,610.25 264.33,611.13 265.87,611.98 267.41,612.80 268.96,613.61 270.50,614.40 272.05,615.16 273.59,615.90 275.14,616.62 276.68,617.32 278.22,618.00 279.77,618.66 281.31,619.30 282.85,619.91 284.38,620.51 285.92,621.08 287.45,621.64 288.98,622.17 290.50,622.68 292.02,623.17 293.54,623.65 295.05,624.10 296.56,624.53 298.06,624.95 299.55,625.34 301.04,625.71 302.53,626.07 304.00,626.40 305.47,626.72 306.94,627.02 308.39,627.30 309.84,627.56 311.28,627.80 312.71,628.03 314.14,628.24 315.55,628.43 316.96,628.60 318.35,628.75 319.74,628.89 321.12,629.02 322.48,629.12 323.84,629.21 325.18,629.29 326.52,629.34 327.84,629.39 329.15,629.42 330.45,629.43 331.74,629.43 333.02,629.41 334.28,629.38 335.53,629.34 336.77,629.28 338.00,629.21 339.21,629.13 340.41,629.03 341.59,628.92 342.77,628.80 343.92,628.67 345.07,628.53 346.20,628.37 347.31,628.21 348.42,628.03 349.50,627.85 350.57,627.65 351.63,627.45 352.67,627.23 353.70,627.01 354.71,626.77 355.71,626.53 356.69,626.29 357.65,626.03 358.60,625.77 359.54,625.50 360.46,625.22 361.36,624.94 362.25,624.65 363.12,624.35 363.97,624.05 364.81,623.75 365.63,623.44 366.44,623.12 367.23,622.80 368.00,622.48 368.76,622.16 369.50,621.83 370.22,621.50 370.93,621.17 371.62,620.83 372.30,620.49 372.96,620.16 373.60,619.82 374.23,619.48 374.84,619.14 375.44,618.80 376.02,618.46 376.58,618.13 377.13,617.79 377.66,617.45 378.18,617.12 378.68,616.79 379.16,616.46 379.63,616.13 380.09,615.81 380.53,615.49 380.95,615.17 381.36,614.86 381.75,614.55 382.13,614.25 382.50,613.95 382.85,613.66 383.19,613.37 383.51,613.08 383.82,612.81 384.11,612.54 384.39,612.28 384.66,612.02 384.91,611.77 385.15,611.53 385.38,611.30 385.60,611.07 385.80,610.85 385.99,610.64 386.17,610.44 386.33,610.25 386.49,610.07 386.63,609.90 386.76,609.74 386.88,609.58 386.99,609.44 387.09,609.31 387.18,609.19 387.26,609.08 387.33,608.98 387.39,608.90 387.44,608.82 387.48,608.76 387.52,608.70 387.54,608.66 387.56,608.64 387.57,608.62 387.57,608.62 387.56,608.63 387.55,608.65 387.53,608.69 387.50,608.74 387.47,608.81 387.43,608.88 387.39,608.97 387.34,609.08 387.29,609.20 387.23,609.33 387.17,609.48 387.10,609.64 387.03,609.82 386.96,610.01 386.88,610.21 386.80,610.43 386.72,610.67 386.64,610.91 386.55,611.18 386.46,611.46 386.38,611.75 386.29,612.06 386.20,612.39 386.11,612.72 386.02,613.08 385.93,613.45 385.85,613.83 385.76,614.23 385.68,614.65 385.60,615.08 385.52,615.52 385.44,615.98 385.36,616.46 385.29,616.95 385.23,617.46 385.16,617.98 385.10,618.51 385.05,619.06 385.00,619.63 384.95,620.21 384.92,620.80 384.88,621.41 384.86,622.03 384.84,622.67 384.82,623.32 384.82,623.99 384.82,624.67 384.83,625.37 384.85,626.07 384.87,626.80 384.91,627.53 384.95,628.28 385.00,629.04 385.07,629.82 385.14,630.61 385.22,631.41 385.32,632.22 385.42,633.05 385.54,633.89 385.66,634.74 385.80,635.60 385.95,636.48 386.12,637.36 386.29,638.26 386.48,639.17 386.68,640.09 386.90,641.02 387.12,641.96 387.37,642.91 387.62,643.87 387.89,644.84 388.18,645.82 388.48,646.81 388.79,647.81 389.12,648.82 389.47,649.83 389.83,650.86 390.20,651.89 390.60,652.93 391.01,653.97 391.43,655.03 391.88,656.09 392.33,657.15 392.81,658.23 393.30,659.31 393.82,660.39 394.34,661.48 394.89,662.58 395.45,663.68 396.04,664.78 396.64,665.89 397.25,667.00 397.89,668.12 398.55,669.23 399.22,670.35 399.91,671.48 400.62,672.60 401.35,673.73 402.10,674.86 402.87,675.99 403.66,677.12 404.47,678.25 405.29,679.38 406.14,680.51 407.00,681.64 407.89,682.77 408.79,683.90 409.72,685.03 410.66,686.15 411.63,687.27 412.61,688.39 413.61,689.51 414.64,690.62 415.68,691.73 416.74,692.84 417.82,693.94 418.92,695.03 420.05,696.12 421.19,697.21 422.35,698.29 423.53,699.36 424.73,700.42 425.95,701.48 427.19,702.54 428.44,703.58 429.72,704.62 431.02,705.64 432.33,706.66 433.67,707.67 435.02,708.67 436.39,709.66 437.78,710.65 439.19,711.62 440.62,712.58 442.07,713.52 443.53,714.46 445.01,715.39 446.51,716.30 448.03,717.20 449.57,718.09 451.12,718.96 452.69,719.83 454.28,720.67 455.88,721.51 457.51,722.33 459.14,723.13 460.80,723.92 462.47,724.70 464.15,725.46 465.85,726.20 467.57,726.93 469.30,727.64 471.05,728.33 472.81,729.01 474.59,729.67 476.38,730.32 478.18,730.94 480.00,731.55 481.83,732.14 483.68,732.71 485.54,733.26 487.41,733.79 489.29,734.30 491.19,734.80 493.09,735.27 495.01,735.73 496.94,736.16 498.88,736.57 500.83,736.97 502.80,737.34 504.77,737.69 506.75,738.02 508.74,738.33 510.74,738.62 512.75,738.88 514.77,739.13 516.79,739.35 518.83,739.55 520.87,739.72 522.91,739.88 524.97,740.01 527.03,740.12 529.10,740.20 531.17,740.27 533.25,740.31 535.33,740.32 537.42,740.32 539.51,740.29 541.61,740.23 543.70,740.15 545.81,740.05 547.91,739.93 550.02,739.78 552.13,739.60 554.24,739.41 556.36,739.18 558.47,738.94 560.58,738.67 562.70,738.38 564.81,738.06 566.93,737.71 569.04,737.35 571.15,736.96 573.26,736.54 575.37,736.10 577.48,735.64 579.58,735.15 581.68,734.64 583.78,734.10 585.87,733.54 587.96,732.96 590.04,732.35 592.12,731.72 594.20,731.06 596.26,730.38 598.33,729.68 600.38,728.95 602.43,728.20 604.47,727.42 606.50,726.63 608.53,725.80 610.55,724.96 612.56,724.09 614.56,723.20 616.55,722.29 618.53,721.35 620.50,720.40 622.46,719.41 624.41,718.41 626.35,717.39 628.28,716.34 630.19,715.27 632.10,714.18 633.99,713.07 635.87,711.94 637.73,710.79 639.59,709.61 641.42,708.42 643.25,707.20 645.06,705.97 646.86,704.72 648.64,703.44 650.40,702.15 652.15,700.84 653.89,699.50 655.61,698.15 657.31,696.79 658.99,695.40 660.66,693.99 662.32,692.57 663.95,691.13 665.57,689.68 667.17,688.20 668.75,686.71 670.31,685.21 671.85,683.69 673.38,682.15 674.89,680.60 676.37,679.03 677.84,677.45 679.29,675.85 680.72,674.24 682.13,672.61 683.51,670.98 684.88,669.32 686.23,667.66 687.55,665.98 688.86,664.30 690.14,662.60 691.40,660.88 692.65,659.16 693.87,657.43 695.06,655.68 696.24,653.93 697.39,652.17 698.53,650.39 699.63,648.61 700.72,646.82 701.79,645.02 702.83,643.21 703.85,641.40 704.85,639.58 705.82,637.75 706.77,635.91 707.70,634.07 708.61,632.23 709.49,630.37 710.35,628.52 711.18,626.65 712.00,624.79 712.79,622.92 713.55,621.04 714.30,619.17 715.02,617.29 715.72,615.41 716.39,613.52 717.04,611.64 717.67,609.75 718.27,607.86 718.85,605.97 719.41,604.08 719.95,602.19 720.46,600.31 720.95,598.42 721.42,596.53 721.86,594.65 722.28,592.77 722.68,590.89 723.06,589.01 723.41,587.13 723.74,585.26 724.05,583.40 724.34,581.53 724.60,579.67 724.84,577.82 725.06,575.97 725.26,574.13 725.44,572.29 725.60,570.46 725.73,568.63 725.85,566.81 725.94,565.00 726.02,563.20 726.07,561.40 726.10,559.62 726.11,557.84 726.10,556.06 726.08,554.30 726.03,552.55 725.96,550.81 725.88,549.07 725.77,547.35 725.65,545.64 725.51,543.93 725.35,542.24 725.17,540.56 724.97,538.89 724.76,537.24 724.53,535.59 724.28,533.96 724.02,532.34 723.74,530.73 723.44,529.14 723.13,527.56 722.80,525.99 722.46,524.44 722.10,522.90 721.72,521.37 721.33,519.86 720.93,518.36 720.51,516.88 720.08,515.41 719.64,513.96 719.18,512.52 718.72,511.10 718.23,509.69 717.74,508.30 717.23,506.93 716.72,505.57 716.19,504.23 715.65,502.90 715.10,501.59 714.54,500.30 713.97,499.03 713.39,497.77 712.80,496.53 712.21,495.30 711.60,494.09 710.99,492.90 710.36,491.73 709.74,490.57 709.10,489.43 708.46,488.31 707.81,487.21 707.15,486.13 706.49,485.06 705.82,484.01 705.15,482.98 704.47,481.96 703.79,480.96 703.11,479.99 702.42,479.02 701.73,478.08 701.03,477.16 700.33,476.25 699.63,475.36 698.93,474.49 698.23,473.63 697.52,472.80 696.81,471.98 696.11,471.18 695.40,470.39 694.69,469.63 693.99,468.88 693.28,468.15 692.58,467.44 691.87,466.74 691.17,466.06 690.47,465.40 689.77,464.75 689.08,464.12 688.39,463.51 687.70,462.92 687.01,462.34 686.33,461.78 685.66,461.23 684.98,460.70 684.32,460.18 683.66,459.69 683.00,459.20 682.35,458.74 681.70,458.28 681.07,457.85 680.43,457.42 679.81,457.02 679.19,456.62 678.58,456.24 677.98,455.88 677.39,455.53 676.80,455.19 676.22,454.87 675.65,454.56 675.10,454.26 674.54,453.98 674.00,453.70 673.47,453.44 672.95,453.20 672.44,452.96 671.94,452.74 671.45,452.52 670.97,452.32 670.50,452.13 670.05,451.95 669.60,451.78 669.17,451.62 668.75,451.47 668.34,451.33 667.94,451.20 667.56,451.08 667.18,450.96 666.82,450.85 666.48,450.76 666.14,450.67 665.82,450.58 665.51,450.51 665.22,450.44 664.94,450.38 664.67,450.32 664.42,450.27 664.18,450.23 663.96,450.19 663.75,450.15 663.55,450.12 663.37,450.10 663.20,450.07 663.04,450.06 662.90,450.04 662.78,450.03 662.67,450.02 662.57,450.01 662.49,450.01 662.42,450.00 662.37,450.00 662.34,450.00 662.31,450.00 662.31,450.00" fill="none" stroke="#265cab" stroke-width="7" stroke-linecap="round" stroke-linejoin="round"/>
<polygon points="481.83,167.86 496.49,154.25 501.61,170.83" fill="#265cab"/>
<polygon points="183.05,509.04 169.38,494.43 185.95,489.25" fill="#265cab"/>
<polygon points="594.20,731.06 579.64,744.77 574.40,728.22" fill="#265cab"/>
</svg>