<svg xmlns="http://www.w3.org/2000/svg" width="900" height="900" viewBox="0 0 900 900">
<rect width="100%" height="100%" fill="#ffffff"/>
<line x1="450.00" y1="810.00" x2="450.00" y2="90.00" stroke="#232323" stroke-width="3"/>
<line x1="90.00" y1="450.00" x2="810.00" y2="450.00" stroke="#232323" stroke-width="3"/>
<polyline points="740.32,450.00 740.32,448.99 740.29,447.97 740.26,446.96 740.21,445.94 740.15,444.93 740.07,443.91 739.98,442.90 739.87,441.89 739.75,440.88 739.61,439.86 739.47,438.85 739.30,437.84 739.13,436.83 738.93,435.82 738.73,434.81 738.51,433.80 738.28,432.79 738.03,431.79 737.77,430.78 737.49,429.78 737.20,428.77 736.90,427.77 736.58,426.77 736.25,425.76 735.90,424.77 735.54,423.77 735.17,422.77 734.78,421.77 734.38,420.78 733.96,419.79 733.53,418.79 733.09,417.80 732.63,416.82 732.16,415.83 731.68,414.84 731.18,413.86 730.67,412.88 730.14,411.90 729.60,410.92 729.05,409.94 728.48,408.97 727.90,408.00 727.31,407.03 726.70,406.06 726.08,405.09 725.45,404.13 724.80,403.17 724.14,402.21 723.46,401.25 722.78,400.30 722.07,399.35 721.36,398.40 720.63,397.45 719.89,396.51 719.14,395.56 718.37,394.62 717.59,393.69 716.79,392.75 715.99,391.82 715.17,390.90 714.34,389.97 713.49,389.05 712.63,388.13 711.76,387.21 710.88,386.30 709.98,385.39 709.07,384.48 708.15,383.58 707.21,382.68 706.27,381.78 705.31,380.89 704.33,380.00 703.35,379.11 702.35,378.23 701.34,377.35 700.32,376.47 699.29,375.60 698.24,374.73 697.18,373.86 696.11,373.00 695.03,372.14 693.94,371.29 692.83,370.44 691.71,369.59 690.58,368.75 689.44,367.91 688.29,367.07 687.12,366.24 685.94,365.42 684.76,364.59 683.56,363.78 682.35,362.96 681.12,362.15 679.89,361.35 678.65,360.55 677.39,359.75 676.12,358.96 674.84,358.17 673.55,357.38 672.25,356.61 670.94,355.83 669.62,355.06 668.29,354.30 666.95,353.54 665.59,352.78 664.23,352.03 662.85,351.28 661.47,350.54 660.07,349.80 658.67,349.07 657.25,348.35 655.83,347.62 654.39,346.91 652.94,346.20 651.49,345.49 650.02,344.79 648.55,344.09 647.06,343.40 645.57,342.71 644.06,342.03 642.55,341.36 641.03,340.69 639.49,340.02 637.95,339.36 636.40,338.71 634.84,338.06 633.27,337.42 631.69,336.78 630.10,336.15 628.51,335.52 626.90,334.90 625.29,334.28 623.67,333.67 622.04,333.07 620.40,332.47 618.75,331.88 617.10,331.29 615.44,330.71 613.76,330.14 612.08,329.57 610.40,329.00 608.70,328.45 607.00,327.89 605.29,327.35 603.57,326.81 601.84,326.28 600.11,325.75 598.37,325.23 596.62,324.71 594.87,324.20 593.11,323.70 591.34,323.20 589.56,322.71 587.78,322.23 585.99,321.75 584.19,321.28 582.39,320.81 580.58,320.35 578.77,319.90 576.94,319.45 575.12,319.01 573.28,318.58 571.44,318.15 569.60,317.73 567.74,317.31 565.89,316.90 564.02,316.50 562.15,316.11 560.28,315.72 558.40,315.34 556.52,314.96 554.63,314.59 552.73,314.23 550.83,313.87 548.92,313.53 547.01,313.18 545.10,312.85 543.18,312.52 541.26,312.20 539.33,311.88 537.40,311.57 535.46,311.27 533.52,310.97 531.57,310.69 529.62,310.40 527.67,310.13 525.71,309.86 523.75,309.60 521.79,309.35 519.82,309.10 517.85,308.86 515.87,308.62 513.90,308.40 511.91,308.18 509.93,307.96 507.94,307.76 505.95,307.56 503.96,307.37 501.97,307.18 499.97,307.00 497.97,306.83 495.97,306.67 493.96,306.51 491.96,306.36 489.95,306.22 487.94,306.08 485.92,305.95 483.91,305.83 481.89,305.72 479.88,305.61 477.86,305.51 475.84,305.41 473.81,305.33 471.79,305.25 469.77,305.18 467.74,305.11 465.72,305.05 463.69,305.00 461.66,304.96 459.64,304.92 457.61,304.89 455.58,304.87 453.55,304.85 451.52,304.84 449.49,304.84 447.46,304.84 445.43,304.86 443.41,304.88 441.38,304.90 439.35,304.94 437.32,304.98 435.29,305.02 433.27,305.08 431.24,305.14 429.22,305.21 427.20,305.29 425.17,305.37 423.15,305.46 421.13,305.56 419.11,305.66 417.10,305.77 415.08,305.89 413.07,306.02 411.06,306.15 409.05,306.29 407.04,306.44 405.03,306.59 403.03,306.75 401.03,306.92 399.03,307.09 397.03,307.27 395.04,307.46 393.05,307.66 391.06,307.86 389.08,308.07 387.09,308.29 385.11,308.51 383.14,308.74 381.16,308.98 379.19,309.22 377.23,309.47 375.27,309.73 373.31,309.99 371.35,310.27 369.40,310.54 367.45,310.83 365.51,311.12 363.57,311.42 361.64,311.73 359.71,312.04 357.78,312.36 355.86,312.68 353.94,313.01 352.03,313.35 350.12,313.70 348.22,314.05 346.32,314.41 344.43,314.78 342.54,315.15 340.66,315.53 338.78,315.91 336.91,316.30 335.04,316.70 333.18,317.11 331.33,317.52 329.48,317.94 327.64,318.36 325.80,318.79 323.97,319.23 322.14,319.67 320.32,320.12 318.51,320.58 316.71,321.04 314.91,321.51 313.11,321.99 311.33,322.47 309.55,322.96 307.78,323.45 306.01,323.95 304.25,324.46 302.50,324.97 300.76,325.49 299.02,326.01 297.29,326.54 295.57,327.08 293.85,327.62 292.15,328.17 290.45,328.72 288.76,329.28 287.07,329.85 285.40,330.42 283.73,331.00 282.07,331.59 280.42,332.18 278.78,332.77 277.14,333.37 275.52,333.98 273.90,334.59 272.29,335.21 270.69,335.83 269.10,336.46 267.52,337.10 265.94,337.74 264.38,338.38 262.82,339.04 261.28,339.69 259.74,340.35 258.21,341.02 256.69,341.69 255.18,342.37 253.68,343.06 252.19,343.75 250.71,344.44 249.24,345.14 247.78,345.84 246.33,346.55 244.89,347.27 243.46,347.98 242.04,348.71 240.63,349.44 239.23,350.17 237.84,350.91 236.46,351.66 235.09,352.40 233.73,353.16 232.38,353.92 231.04,354.68 229.71,355.45 228.40,356.22 227.09,356.99 225.80,357.78 224.51,358.56 223.24,359.35 221.98,360.15 220.73,360.95 219.49,361.75 218.26,362.56 217.05,363.37 215.84,364.18 214.65,365.00 213.46,365.83 212.29,366.66 211.13,367.49 209.99,368.33 208.85,369.17 207.73,370.01 206.61,370.86 205.51,371.71 204.43,372.57 203.35,373.43 202.29,374.29 201.23,375.16 200.19,376.03 199.17,376.91 198.15,377.79 197.15,378.67 196.16,379.55 195.18,380.44 194.21,381.33 193.26,382.23 192.32,383.13 191.39,384.03 190.47,384.94 189.57,385.84 188.68,386.76 187.80,387.67 186.94,388.59 186.08,389.51 185.25,390.43 184.42,391.36 183.61,392.29 182.81,393.22 182.02,394.16 181.24,395.09 180.48,396.03 179.74,396.98 179.00,397.92 178.28,398.87 177.57,399.82 176.88,400.78 176.20,401.73 175.53,402.69 174.87,403.65 174.23,404.61 173.60,405.58 172.99,406.54 172.39,407.51 171.80,408.48 171.23,409.46 170.67,410.43 170.12,411.41 169.59,412.39 169.07,413.37 168.57,414.35 168.07,415.34 167.60,416.32 167.13,417.31 166.68,418.30 166.25,419.29 165.82,420.28 165.42,421.28 165.02,422.27 164.64,423.27 164.27,424.27 163.92,425.26 163.58,426.27 163.26,427.27 162.95,428.27 162.65,429.27 162.37,430.28 162.10,431.28 161.84,432.29 161.60,433.30 161.38,434.31 161.17,435.31 160.97,436.32 160.78,437.33 160.61,438.35 160.46,439.36 160.32,440.37 160.19,441.38 160.07,442.39 159.98,443.41 159.89,444.42 159.82,445.44 159.76,446.45 159.72,447.46 159.69,448.48 159.68,449.49 159.68,450.51 159.69,451.52 159.72,452.54 159.76,453.55 159.82,454.56 159.89,455.58 159.98,456.59 160.07,457.61 160.19,458.62 160.32,459.63 160.46,460.64 160.61,461.65 160.78,462.67 160.97,463.68 161.17,464.69 161.38,465.69 161.60,466.70 161.84,467.71 162.10,468.72 162.37,469.72 162.65,470.73 162.95,471.73 163.26,472.73 163.58,473.73 163.92,474.74 164.27,475.73 164.64,476.73 165.02,477.73 165.42,478.72 165.82,479.72 166.25,480.71 166.68,481.70 167.13,482.69 167.60,483.68 168.07,484.66 168.57,485.65 169.07,486.63 169.59,487.61 170.12,488.59 170.67,489.57 171.23,490.54 171.80,491.52 172.39,492.49 172.99,493.46 173.60,494.42 174.23,495.39 174.87,496.35 175.53,497.31 176.20,498.27 176.88,499.22 177.57,500.18 178.28,501.13 179.00,502.08 179.74,503.02 180.48,503.97 181.24,504.91 182.02,505.84 182.81,506.78 183.61,507.71 184.42,508.64 185.25,509.57 186.08,510.49 186.94,511.41 187.80,512.33 188.68,513.24 189.57,514.16 190.47,515.06 191.39,515.97 192.32,516.87 193.26,517.77 194.21,518.67 195.18,519.56 196.16,520.45 197.15,521.33 198.15,522.21 199.17,523.09 200.19,523.97 201.23,524.84 202.29,525.71 203.35,526.57 204.43,527.43 205.51,528.29 206.61,529.14 207.73,529.99 208.85,530.83 209.99,531.67 211.13,532.51 212.29,533.34 213.46,534.17 214.65,535.00 215.84,535.82 217.05,536.63 218.26,537.44 219.49,538.25 220.73,539.05 221.98,539.85 223.24,540.65 224.51,541.44 225.80,542.22 227.09,543.01 228.40,543.78 229.71,544.55 231.04,545.32 232.38,546.08 233.73,546.84 235.09,547.60 236.46,548.34 237.84,549.09 239.23,549.83 240.63,550.56 242.04,551.29 243.46,552.02 244.89,552.73 246.33,553.45 247.78,554.16 249.24,554.86 250.71,555.56 252.19,556.25 253.68,556.94 255.18,557.63 256.69,558.31 258.21,558.98 259.74,559.65 261.28,560.31 262.82,560.96 264.38,561.62 265.94,562.26 267.52,562.90 269.10,563.54 270.69,564.17 272.29,564.79 273.90,565.41 275.52,566.02 277.14,566.63 278.78,567.23 280.42,567.82 282.07,568.41 283.73,569.00 285.40,569.58 287.07,570.15 288.76,570.72 290.45,571.28 292.15,571.83 293.85,572.38 295.57,572.92 297.29,573.46 299.02,573.99 300.76,574.51 302.50,575.03 304.25,575.54 306.01,576.05 307.78,576.55 309.55,577.04 311.33,577.53 313.11,578.01 314.91,578.49 316.71,578.96 318.51,579.42 320.32,579.88 322.14,580.33 323.97,580.77 325.80,581.21 327.64,581.64 329.48,582.06 331.33,582.48 333.18,582.89 335.04,583.30 336.91,583.70 338.78,584.09 340.66,584.47 342.54,584.85 344.43,585.22 346.32,585.59 348.22,585.95 350.12,586.30 352.03,586.65 353.94,586.99 355.86,587.32 357.78,587.64 359.71,587.96 361.64,588.27 363.57,588.58 365.51,588.88 367.45,589.17 369.40,589.46 371.35,589.73 373.31,590.01 375.27,590.27 377.23,590.53 379.19,590.78 381.16,591.02 383.14,591.26 385.11,591.49 387.09,591.71 389.08,591.93 391.06,592.14 393.05,592.34 395.04,592.54 397.03,592.73 399.03,592.91 401.03,593.08 403.03,593.25 405.03,593.41 407.04,593.56 409.05,593.71 411.06,593.85 413.07,593.98 415.08,594.11 417.10,594.23 419.11,594.34 421.13,594.44 423.15,594.54 425.17,594.63 427.20,594.71 429.22,594.79 431.24,594.86 433.27,594.92 435.29,594.98 437.32,595.02 439.35,595.06 441.38,595.10 443.41,595.12 445.43,595.14 447.46,595.16 449.49,595.16 451.52,595.16 453.55,595.15 455.58,595.13 457.61,595.11 459.64,595.08 461.66,595.04 463.69,595.00 465.72,594.95 467.74,594.89 469.77,594.82 471.79,594.75 473.81,594.67 475.84,594.59 477.86,594.49 479.88,594.39 481.89,594.28 483.91,594.17 485.92,594.05 487.94,593.92 489.95,593.78 491.96,593.64 493.96,593.49 495.97,593.33 497.97,593.17 499.97,593.00 501.97,592.82 503.96,592.63 505.95,592.44 507.94,592.24 509.93,592.04 511.91,591.82 513.90,591.60 515.87,591.38 517.85,591.14 519.82,590.90 521.79,590.65 523.75,590.40 525.71,590.14 527.67,589.87 529.62,589.60 531.57,589.31 533.52,589.03 535.46,588.73 537.40,588.43 539.33,588.12 541.26,587.80 543.18,587.48 545.10,587.15 547.01,586.82 548.92,586.47 550.83,586.13 552.73,585.77 554.63,585.41 556.52,585.04 558.40,584.66 560.28,584.28 562.15,583.89 564.02,583.50 565.89,583.10 567.74,582.69 569.60,582.27 571.44,581.85 573.28,581.42 575.12,580.99 576.94,580.55 578.77,580.10 580.58,579.65 582.39,579.19 584.19,578.72 585.99,578.25 587.78,577.77 589.56,577.29 591.34,576.80 593.11,576.30 594.87,575.80 596.62,575.29 598.37,574.77 600.11,574.25 601.84,573.72 603.57,573.19 605.29,572.65 607.00,572.11 608.70,571.55 610.40,571.00 612.08,570.43 613.76,569.86 615.44,569.29 617.10,568.71 618.75,568.12 620.40,567.53 622.04,566.93 623.67,566.33 625.29,565.72 626.90,565.10 628.51,564.48 630.10,563.85 631.69,563.22 633.27,562.58 634.84,561.94 636.40,561.29 637.95,560.64 639.49,559.98 641.03,559.31 642.55,558.64 644.06,557.97 645.57,557.29 647.06,556.60 648.55,555.91 650.02,555.21 651.49,554.51 652.94,553.80 654.39,553.09 655.83,552.38 657.25,551.65 658.67,550.93 660.07,550.20 661.47,549.46 662.85,548.72 664.23,547.97 665.59,547.22 666.95,546.46 668.29,545.70 669.62,544.94 670.94,544.17 672.25,543.39 673.55,542.62 674.84,541.83 676.12,541.04 677.39,540.25 678.65,539.45 679.89,538.65 681.12,537.85 682.35,537.04 683.56,536.22 684.76,535.41 685.94,534.58 687.12,533.76 688.29,532.93 689.44,532.09 690.58,531.25 691.71,530.41 692.83,529.56 693.94,528.71 695.03,527.86 696.11,527.00 697.18,526.14 698.24,525.27 699.29,524.40 700.32,523.53 701.34,522.65 702.35,521.77 703.35,520.89 704.33,520.00 705.31,519.11 706.27,518.22 707.21,517.32 708.15,516.42 709.07,515.52 709.98,514.61 710.88,513.70 711.76,512.79 712.63,511.87 713.49,510.95 714.34,510.03 715.17,509.10 715.99,508.18 716.79,507.25 717.59,506.31 718.37,505.38 719.14,504.44 719.89,503.49 720.63,502.55 721.36,501.60 722.07,500.65 722.78,499.70 723.46,498.75 724.14,497.79 724.80,496.83 725.45,495.87 726.08,494.91 726.70,493.94 727.31,492.97 727.90,492.00 728.48,491.03 729.05,490.06 729.60,489.08 730.14,488.10 730.67,487.12 731.18,486.14 731.68,485.16 732.16,484.17 732.63,483.18 733.09,482.20 733.53,481.21 733.96,480.21 734.38,479.22 734.78,478.23 735.17,477.23 735.54,476.23 735.90,475.23 736.25,474.24 736.58,473.23 736.90,472.23 737.20,471.23 737.49,470.22 737.77,469.22 738.03,468.21 738.28,467.21 738.51,466.20 738.73,465.19 738.93,464.18 739.13,463.17 739.30,462.16 739.47,461.15 739.61,460.14 739.75,459.12 739.87,458.11 739.98,457.10 740.07,456.09 740.15,455.07 740.21,454.06 740.26,453.04 740.29,452.03 740.32,451.01 740.32,450.00" fill="none" stroke="#265cab" stroke-width="7" stroke-linecap="round" stroke-linejoin="round"/>
<polygon points="451.52,304.84 469.58,296.24 469.50,313.60" fill="#265cab"/>
<polygon points="173.60,494.42 156.62,483.87 171.27,474.56" fill="#265cab"/>
<polygon points="573.28,581.42 557.69,593.96 553.77,577.05" fill="#265cab"/>
</svg>