<svg xmlns="http://www.w3.org/2000/svg" width="900" height="900" viewBox="0 0 900 900">
<rect width="100%" height="100%" fill="#ffffff"/>
<line x1="359.16" y1="810.00" x2="359.16" y2="90.00" stroke="#232323" stroke-width="3"/>
<line x1="90.00" y1="540.84" x2="810.00" y2="540.84" stroke="#232323" stroke-width="3"/>
<polyline points="359.16,540.84 359.48,540.84 359.80,540.84 360.12,540.85 360.43,540.86 360.75,540.88 361.07,540.90 361.39,540.92 361.70,540.94 362.02,540.97 362.34,541.00 362.65,541.04 362.97,541.08 363.28,541.12 363.60,541.16 363.92,541.21 364.23,541.26 364.54,541.32 364.86,541.38 365.17,541.44 365.48,541.50 365.80,541.57 366.11,541.64 366.42,541.72 366.73,541.79 367.04,541.87 367.35,541.96 367.66,542.05 367.97,542.14 368.27,542.23 368.58,542.33 368.89,542.43 369.19,542.53 369.50,542.64 369.80,542.75 370.10,542.87 370.40,542.98 370.70,543.10 371.00,543.23 371.30,543.35 371.60,543.48 371.90,543.62 372.19,543.75 372.49,543.89 372.78,544.03 373.07,544.18 373.36,544.33 373.65,544.48 373.94,544.63 374.23,544.79 374.51,544.95 374.80,545.12 375.08,545.29 375.36,545.46 375.65,545.63 375.92,545.81 376.20,545.99 376.48,546.17 376.75,546.35 377.03,546.54 377.30,546.74 377.57,546.93 377.84,547.13 378.11,547.33 378.37,547.53 378.64,547.74 378.90,547.95 379.16,548.16 379.42,548.38 379.68,548.60 379.93,548.82 380.19,549.04 380.44,549.27 380.69,549.50 380.94,549.73 381.19,549.97 381.43,550.21 381.67,550.45 381.92,550.69 382.15,550.94 382.39,551.19 382.63,551.44 382.86,551.70 383.09,551.95 383.32,552.21 383.55,552.48 383.77,552.74 383.99,553.01 384.21,553.28 384.43,553.56 384.65,553.84 384.86,554.11 385.07,554.40 385.28,554.68 385.49,554.97 385.70,555.26 385.90,555.55 386.10,555.84 386.30,556.14 386.49,556.44 386.69,556.74 386.88,557.05 387.06,557.35 387.25,557.66 387.43,557.98 387.61,558.29 387.79,558.61 387.97,558.93 388.14,559.25 388.31,559.57 388.48,559.90 388.65,560.22 388.81,560.55 388.97,560.89 389.13,561.22 389.28,561.56 389.43,561.90 389.58,562.24 389.73,562.58 389.87,562.93 390.01,563.28 390.15,563.62 390.29,563.98 390.42,564.33 390.55,564.69 390.67,565.04 390.80,565.40 390.92,565.77 391.04,566.13 391.15,566.49 391.26,566.86 391.37,567.23 391.48,567.60 391.58,567.98 391.68,568.35 391.78,568.73 391.87,569.11 391.96,569.49 392.05,569.87 392.14,570.25 392.22,570.64 392.30,571.02 392.37,571.41 392.44,571.80 392.51,572.19 392.58,572.59 392.64,572.98 392.70,573.38 392.76,573.78 392.81,574.18 392.86,574.58 392.90,574.98 392.95,575.38 392.99,575.79 393.02,576.19 393.06,576.60 393.09,577.01 393.11,577.42 393.13,577.83 393.15,578.25 393.17,578.66 393.18,579.07 393.19,579.49 393.20,579.91 393.20,580.33 393.20,580.75 393.19,581.17 393.19,581.59 393.17,582.01 393.16,582.44 393.14,582.86 393.12,583.29 393.09,583.71 393.06,584.14 393.03,584.57 392.99,585.00 392.95,585.43 392.91,585.86 392.86,586.29 392.81,586.72 392.76,587.16 392.70,587.59 392.64,588.02 392.57,588.46 392.51,588.89 392.43,589.33 392.36,589.77 392.28,590.21 392.19,590.64 392.11,591.08 392.02,591.52 391.92,591.96 391.82,592.40 391.72,592.84 391.62,593.28 391.51,593.72 391.39,594.16 391.28,594.60 391.16,595.04 391.03,595.48 390.90,595.93 390.77,596.37 390.64,596.81 390.50,597.25 390.35,597.69 390.21,598.14 390.06,598.58 389.90,599.02 389.74,599.46 389.58,599.90 389.41,600.35 389.25,600.79 389.07,601.23 388.89,601.67 388.71,602.11 388.53,602.55 388.34,602.99 388.15,603.44 387.95,603.88 387.75,604.32 387.55,604.75 387.34,605.19 387.13,605.63 386.91,606.07 386.69,606.51 386.47,606.95 386.24,607.38 386.01,607.82 385.78,608.25 385.54,608.69 385.30,609.12 385.05,609.56 384.80,609.99 384.55,610.42 384.29,610.85 384.03,611.28 383.76,611.71 383.49,612.14 383.22,612.57 382.94,613.00 382.66,613.42 382.38,613.85 382.09,614.27 381.80,614.69 381.50,615.12 381.20,615.54 380.90,615.96 380.59,616.38 380.28,616.79 379.97,617.21 379.65,617.63 379.33,618.04 379.00,618.45 378.67,618.86 378.34,619.27 378.00,619.68 377.66,620.09 377.31,620.49 376.96,620.90 376.61,621.30 376.25,621.70 375.89,622.10 375.53,622.50 375.16,622.90 374.79,623.29 374.42,623.69 374.04,624.08 373.66,624.47 373.27,624.86 372.88,625.24 372.49,625.63 372.09,626.01 371.69,626.39 371.29,626.77 370.88,627.15 370.47,627.52 370.05,627.90 369.63,628.27 369.21,628.64 368.79,629.01 368.36,629.37 367.92,629.74 367.49,630.10 367.05,630.46 366.60,630.81 366.16,631.17 365.71,631.52 365.25,631.87 364.80,632.22 364.33,632.56 363.87,632.91 363.40,633.25 362.93,633.59 362.46,633.92 361.98,634.26 361.50,634.59 361.01,634.92 360.52,635.24 360.03,635.57 359.54,635.89 359.04,636.21 358.53,636.52 358.03,636.84 357.52,637.15 357.01,637.45 356.49,637.76 355.98,638.06 355.45,638.36 354.93,638.66 354.40,638.95 353.87,639.24 353.34,639.53 352.80,639.82 352.26,640.10 351.71,640.38 351.17,640.65 350.62,640.93 350.06,641.20 349.51,641.47 348.95,641.73 348.39,641.99 347.82,642.25 347.25,642.50 346.68,642.76 346.11,643.00 345.53,643.25 344.95,643.49 344.37,643.73 343.78,643.97 343.19,644.20 342.60,644.43 342.01,644.65 341.41,644.88 340.81,645.09 340.21,645.31 339.60,645.52 338.99,645.73 338.38,645.93 337.77,646.13 337.15,646.33 336.53,646.53 335.91,646.72 335.29,646.90 334.66,647.09 334.03,647.27 333.40,647.44 332.76,647.61 332.13,647.78 331.49,647.95 330.84,648.11 330.20,648.27 329.55,648.42 328.90,648.57 328.25,648.71 327.60,648.86 326.94,648.99 326.28,649.13 325.62,649.26 324.96,649.38 324.29,649.50 323.63,649.62 322.96,649.74 322.28,649.85 321.61,649.95 320.93,650.05 320.25,650.15 319.57,650.25 318.89,650.33 318.21,650.42 317.52,650.50 316.83,650.58 316.14,650.65 315.45,650.72 314.76,650.78 314.06,650.84 313.36,650.90 312.66,650.95 311.96,651.00 311.26,651.04 310.55,651.08 309.84,651.11 309.14,651.14 308.43,651.17 307.71,651.19 307.00,651.20 306.29,651.22 305.57,651.22 304.85,651.23 304.13,651.22 303.41,651.22 302.69,651.21 301.96,651.19 301.24,651.17 300.51,651.15 299.78,651.12 299.05,651.09 298.32,651.05 297.59,651.00 296.86,650.96 296.13,650.91 295.39,650.85 294.65,650.79 293.92,650.72 293.18,650.65 292.44,650.57 291.70,650.49 290.95,650.41 290.21,650.32 289.47,650.22 288.72,650.12 287.98,650.02 287.23,649.91 286.49,649.80 285.74,649.68 284.99,649.55 284.24,649.43 283.49,649.29 282.74,649.15 281.99,649.01 281.24,648.86 280.48,648.71 279.73,648.55 278.98,648.39 278.22,648.22 277.47,648.05 276.71,647.87 275.96,647.69 275.20,647.50 274.45,647.31 273.69,647.11 272.94,646.91 272.18,646.70 271.42,646.49 270.67,646.27 269.91,646.05 269.15,645.82 268.40,645.59 267.64,645.35 266.88,645.11 266.12,644.86 265.37,644.60 264.61,644.35 263.85,644.08 263.10,643.81 262.34,643.54 261.58,643.26 260.83,642.98 260.07,642.69 259.32,642.40 258.56,642.10 257.81,641.79 257.05,641.48 256.30,641.17 255.55,640.85 254.79,640.52 254.04,640.19 253.29,639.86 252.54,639.52 251.79,639.17 251.04,638.82 250.29,638.47 249.54,638.11 248.80,637.74 248.05,637.37 247.31,636.99 246.56,636.61 245.82,636.22 245.08,635.83 244.33,635.44 243.59,635.03 242.85,634.63 242.12,634.21 241.38,633.80 240.64,633.37 239.91,632.94 239.17,632.51 238.44,632.07 237.71,631.63 236.98,631.18 236.25,630.73 235.52,630.27 234.80,629.80 234.08,629.33 233.35,628.86 232.63,628.38 231.91,627.90 231.19,627.41 230.48,626.91 229.76,626.41 229.05,625.91 228.34,625.40 227.63,624.88 226.92,624.36 226.22,623.83 225.51,623.30 224.81,622.77 224.11,622.23 223.42,621.68 222.72,621.13 222.03,620.57 221.33,620.01 220.64,619.44 219.96,618.87 219.27,618.30 218.59,617.71 217.91,617.13 217.23,616.54 216.55,615.94 215.88,615.34 215.21,614.73 214.54,614.12 213.87,613.50 213.21,612.88 212.55,612.25 211.89,611.62 211.23,610.99 210.58,610.34 209.93,609.70 209.28,609.05 208.64,608.39 207.99,607.73 207.35,607.06 206.72,606.39 206.08,605.72 205.45,605.04 204.82,604.35 204.20,603.66 203.58,602.97 202.96,602.27 202.34,601.56 201.73,600.85 201.12,600.14 200.51,599.42 199.91,598.70 199.31,597.97 198.71,597.23 198.12,596.50 197.52,595.75 196.94,595.01 196.35,594.26 195.77,593.50 195.20,592.74 194.62,591.97 194.05,591.20 193.49,590.43 192.92,589.65 192.37,588.86 191.81,588.08 191.26,587.28 190.71,586.49 190.17,585.68 189.63,584.88 189.09,584.07 188.56,583.25 188.03,582.43 187.50,581.61 186.98,580.78 186.47,579.95 185.95,579.11 185.44,578.27 184.94,577.42 184.44,576.57 183.94,575.72 183.45,574.86 182.96,574.00 182.48,573.13 182.00,572.26 181.52,571.39 181.05,570.51 180.58,569.62 180.12,568.74 179.66,567.85 179.21,566.95 178.76,566.05 178.31,565.15 177.87,564.24 177.44,563.33 177.01,562.41 176.58,561.49 176.16,560.57 175.74,559.64 175.33,558.71 174.92,557.78 174.52,556.84 174.12,555.90 173.73,554.95 173.34,554.00 172.96,553.05 172.58,552.09 172.20,551.13 171.83,550.17 171.47,549.20 171.11,548.23 170.76,547.26 170.41,546.28 170.06,545.30 169.73,544.31 169.39,543.32 169.06,542.33 168.74,541.34 168.42,540.34 168.11,539.33 167.80,538.33 167.50,537.32 167.20,536.31 166.91,535.29 166.63,534.28 166.35,533.25 166.07,532.23 165.80,531.20 165.54,530.17 165.28,529.14 165.02,528.10 164.78,527.06 164.53,526.02 164.30,524.97 164.07,523.93 163.84,522.87 163.62,521.82 163.41,520.76 163.20,519.70 163.00,518.64 162.80,517.58 162.61,516.51 162.43,515.44 162.25,514.36 162.07,513.29 161.91,512.21 161.74,511.13 161.59,510.05 161.44,508.96 161.29,507.87 161.16,506.78 161.02,505.69 160.90,504.60 160.78,503.50 160.67,502.40 160.56,501.30 160.46,500.19 160.36,499.09 160.27,497.98 160.19,496.87 160.11,495.76 160.04,494.64 159.98,493.53 159.92,492.41 159.87,491.29 159.82,490.17 159.78,489.04 159.75,487.92 159.72,486.79 159.70,485.66 159.69,484.53 159.68,483.40 159.68,482.26 159.68,481.13 159.69,479.99 159.71,478.85 159.74,477.71 159.77,476.57 159.81,475.43 159.85,474.28 159.90,473.14 159.96,471.99 160.02,470.84 160.09,469.69 160.17,468.54 160.25,467.39 160.34,466.23 160.44,465.08 160.54,463.93 160.65,462.77 160.77,461.61 160.89,460.45 161.02,459.30 161.16,458.14 161.30,456.97 161.45,455.81 161.61,454.65 161.77,453.49 161.94,452.33 162.12,451.16 162.30,450.00 162.49,448.83 162.69,447.67 162.90,446.50 163.11,445.33 163.32,444.17 163.55,443.00 163.78,441.83 164.02,440.66 164.27,439.50 164.52,438.33 164.78,437.16 165.04,435.99 165.32,434.82 165.60,433.66 165.88,432.49 166.18,431.32 166.48,430.15 166.79,428.98 167.10,427.82 167.42,426.65 167.75,425.48 168.09,424.31 168.43,423.15 168.78,421.98 169.14,420.81 169.50,419.65 169.87,418.48 170.25,417.32 170.63,416.16 171.03,414.99 171.42,413.83 171.83,412.67 172.24,411.51 172.66,410.35 173.09,409.19 173.52,408.03 173.96,406.87 174.41,405.72 174.87,404.56 175.33,403.41 175.80,402.26 176.27,401.10 176.76,399.95 177.25,398.80 177.74,397.65 178.25,396.51 178.76,395.36 179.28,394.22 179.80,393.08 180.34,391.93 180.88,390.79 181.42,389.66 181.98,388.52 182.54,387.38 183.10,386.25 183.68,385.12 184.26,383.99 184.85,382.86 185.45,381.74 186.05,380.61 186.66,379.49 187.28,378.37 187.90,377.25 188.53,376.14 189.17,375.02 189.81,373.91 190.46,372.80 191.12,371.69 191.79,370.59 192.46,369.49 193.14,368.39 193.83,367.29 194.52,366.19 195.22,365.10 195.93,364.01 196.64,362.92 197.37,361.84 198.09,360.75 198.83,359.67 199.57,358.60 200.32,357.52 201.08,356.45 201.84,355.38 202.61,354.32 203.39,353.26 204.17,352.20 204.96,351.14 205.76,350.09 206.56,349.04 207.37,347.99 208.19,346.95 209.01,345.91 209.84,344.87 210.68,343.84 211.52,342.81 212.38,341.78 213.23,340.76 214.10,339.74 214.97,338.72 215.85,337.71 216.73,336.70 217.62,335.69 218.52,334.69 219.42,333.69 220.34,332.70 221.25,331.71 222.18,330.72 223.11,329.74 224.05,328.76 224.99,327.79 225.94,326.82 226.90,325.85 227.86,324.89 228.83,323.93 229.81,322.98 230.79,322.03 231.78,321.09 232.77,320.15 233.77,319.21 234.78,318.28 235.80,317.35 236.82,316.43 237.84,315.51 238.88,314.60 239.92,313.69 240.96,312.79 242.01,311.89 243.07,310.99 244.14,310.10 245.21,309.22 246.28,308.34 247.37,307.46 248.45,306.59 249.55,305.73 250.65,304.87 251.76,304.01 252.87,303.16 253.99,302.32 255.11,301.48 256.24,300.64 257.38,299.82 258.52,298.99 259.67,298.17 260.82,297.36 261.98,296.55 263.15,295.75 264.32,294.96 265.50,294.16 266.68,293.38 267.87,292.60 269.06,291.83 270.26,291.06 271.47,290.29 272.68,289.54 273.89,288.79 275.12,288.04 276.34,287.30 277.58,286.57 278.81,285.84 280.06,285.12 281.31,284.41 282.56,283.70 283.82,282.99 285.08,282.30 286.35,281.61 287.63,280.92 288.91,280.24 290.19,279.57 291.48,278.91 292.78,278.25 294.08,277.59 295.39,276.95 296.70,276.31 298.01,275.67 299.33,275.05 300.66,274.43 301.99,273.81 303.32,273.21 304.66,272.61 306.01,272.01 307.36,271.42 308.71,270.84 310.07,270.27 311.44,269.70 312.80,269.14 314.18,268.59 315.55,268.05 316.93,267.51 318.32,266.97 319.71,266.45 321.11,265.93 322.50,265.42 323.91,264.92 325.32,264.42 326.73,263.93 328.14,263.45 329.56,262.97 330.99,262.51 332.42,262.05 333.85,261.59 335.29,261.15 336.73,260.71 338.17,260.28 339.62,259.86 341.07,259.44 342.53,259.03 343.99,258.63 345.45,258.24 346.92,257.85 348.39,257.47 349.87,257.10 351.34,256.74 352.83,256.39 354.31,256.04 355.80,255.70 357.29,255.37 358.79,255.05 360.29,254.73 361.79,254.42 363.29,254.12 364.80,253.83 366.31,253.54 367.83,253.27 369.35,253.00 370.87,252.74 372.39,252.49 373.92,252.24 375.45,252.01 376.98,251.78 378.52,251.56 380.06,251.35 381.60,251.14 383.14,250.95 384.69,250.76 386.24,250.58 387.79,250.41 389.34,250.25 390.90,250.10 392.46,249.95 394.02,249.81 395.59,249.69 397.15,249.56 398.72,249.45 400.29,249.35 401.86,249.25 403.44,249.17 405.02,249.09 406.60,249.02 408.18,248.96 409.76,248.91 411.35,248.86 412.93,248.83 414.52,248.80 416.11,248.78 417.70,248.77 419.30,248.77 420.89,248.78 422.49,248.80 424.09,248.82 425.69,248.86 427.29,248.90 428.89,248.95 430.50,249.01 432.10,249.08 433.71,249.16 435.32,249.25 436.93,249.34 438.54,249.45 440.15,249.56 441.76,249.69 443.37,249.82 444.99,249.96 446.60,250.11 448.22,250.27 449.83,250.43 451.45,250.61 453.07,250.79 454.68,250.99 456.30,251.19 457.92,251.40 459.54,251.62 461.16,251.85 462.78,252.09 464.40,252.34 466.02,252.60 467.64,252.87 469.27,253.14 470.89,253.43 472.51,253.72 474.13,254.02 475.75,254.33 477.37,254.66 478.99,254.99 480.61,255.33 482.23,255.67 483.85,256.03 485.47,256.40 487.09,256.77 488.71,257.16 490.33,257.55 491.95,257.96 493.57,258.37 495.18,258.79 496.80,259.22 498.41,259.66 500.03,260.11 501.64,260.57 503.25,261.04 504.86,261.52 506.47,262.00 508.08,262.50 509.69,263.00 511.30,263.52 512.90,264.04 514.51,264.57 516.11,265.11 517.71,265.66 519.31,266.22 520.91,266.79 522.51,267.37 524.10,267.96 525.70,268.56 527.29,269.16 528.88,269.78 530.47,270.40 532.05,271.04 533.64,271.68 535.22,272.33 536.80,272.99 538.38,273.66 539.95,274.34 541.53,275.03 543.10,275.73 544.67,276.44 546.24,277.15 547.80,277.88 549.36,278.61 550.92,279.36 552.48,280.11 554.03,280.87 555.58,281.65 557.13,282.43 558.68,283.22 560.22,284.01 561.76,284.82 563.30,285.64 564.83,286.47 566.37,287.30 567.89,288.14 569.42,289.00 570.94,289.86 572.46,290.73 573.98,291.61 575.49,292.50 577.00,293.40 578.50,294.31 580.00,295.22 581.50,296.15 582.99,297.08 584.48,298.03 585.97,298.98 587.45,299.94 588.93,300.91 590.41,301.89 591.88,302.88 593.35,303.87 594.81,304.88 596.27,305.89 597.72,306.92 599.18,307.95 600.62,308.99 602.06,310.04 603.50,311.10 604.93,312.16 606.36,313.24 607.79,314.32 609.21,315.42 610.62,316.52 612.03,317.63 613.44,318.75 614.84,319.88 616.24,321.01 617.63,322.16 619.01,323.31 620.39,324.47 621.77,325.64 623.14,326.82 624.51,328.01 625.87,329.21 627.22,330.41 628.57,331.62 629.92,332.84 631.26,334.07 632.59,335.31 633.92,336.56 635.24,337.81 636.56,339.07 637.87,340.34 639.18,341.62 640.48,342.91 641.77,344.21 643.06,345.51 644.34,346.82 645.62,348.14 646.89,349.47 648.15,350.80 649.41,352.15 650.66,353.50 651.91,354.86 653.15,356.23 654.38,357.60 655.61,358.98 656.83,360.38 658.05,361.78 659.25,363.18 660.45,364.60 661.65,366.02 662.84,367.45 664.02,368.89 665.19,370.33 666.36,371.78 667.52,373.24 668.68,374.71 669.82,376.19 670.96,377.67 672.10,379.16 673.22,380.66 674.34,382.16 675.45,383.68 676.56,385.20 677.66,386.72 678.75,388.26 679.83,389.80 680.90,391.35 681.97,392.90 683.03,394.46 684.09,396.03 685.13,397.61 686.17,399.20 687.20,400.79 688.22,402.38 689.24,403.99 690.24,405.60 691.24,407.22 692.23,408.84 693.22,410.47 694.19,412.11 695.16,413.76 696.12,415.41 697.07,417.07 698.01,418.73 698.95,420.40 699.87,422.08 700.79,423.76 701.70,425.46 702.60,427.15 703.50,428.86 704.38,430.56 705.26,432.28 706.13,434.00 706.99,435.73 707.84,437.46 708.68,439.20 709.51,440.95 710.34,442.70 711.15,444.46 711.96,446.22 712.76,447.99 713.55,449.77 714.33,451.55 715.10,453.33 715.86,455.13 716.62,456.92 717.36,458.73 718.10,460.54 718.82,462.35 719.54,464.17 720.25,465.99 720.95,467.82 721.64,469.66 722.32,471.50 722.99,473.35 723.65,475.20 724.30,477.05 724.95,478.92 725.58,480.78 726.20,482.65 726.82,484.53 727.42,486.41 728.02,488.30 728.60,490.19 729.18,492.08 729.74,493.98 730.30,495.89 730.84,497.79 731.38,499.71 731.91,501.63 732.42,503.55 732.93,505.47 733.43,507.41 733.92,509.34 734.39,511.28 734.86,513.22 735.32,515.17 735.76,517.12 736.20,519.08 736.62,521.04 737.04,523.00 737.45,524.97 737.84,526.94 738.23,528.91 738.60,530.89 738.97,532.87 739.32,534.86 739.67,536.85 740.00,538.84 740.32,540.84" fill="none" stroke="#265cab" stroke-width="7" stroke-linecap="round" stroke-linejoin="round"/>
<polygon points="359.54,635.89 369.93,618.80 379.38,633.36" fill="#265cab"/>
<polygon points="159.77,476.57 167.95,494.82 150.60,494.35" fill="#265cab"/>
<polygon points="491.95,257.96 472.36,262.02 476.56,245.18" fill="#265cab"/>
</svg>