<svg xmlns="http://www.w3.org/2000/svg" width="900" height="900" viewBox="0 0 900 900">
<rect width="100%" height="100%" fill="#ffffff"/>
<line x1="159.68" y1="810.00" x2="159.68" y2="90.00" stroke="#232323" stroke-width="3"/>
<line x1="90.00" y1="740.32" x2="810.00" y2="740.32" stroke="#232323" stroke-width="3"/>
<polyline points="159.68,740.32 160.51,737.71 161.34,735.10 162.17,732.49 163.00,729.88 163.83,727.27 164.66,724.67 165.49,722.06 166.32,719.45 167.15,716.84 167.98,714.23 168.81,711.63 169.65,709.02 170.48,706.42 171.31,703.81 172.14,701.21 172.97,698.60 173.80,696.00 174.63,693.40 175.46,690.80 176.29,688.20 177.12,685.60 177.95,683.00 178.78,680.41 179.61,677.81 180.44,675.22 181.28,672.63 182.11,670.03 182.94,667.44 183.77,664.86 184.60,662.27 185.43,659.68 186.26,657.10 187.09,654.52 187.92,651.94 188.75,649.36 189.58,646.78 190.41,644.21 191.24,641.64 192.07,639.07 192.90,636.50 193.74,633.93 194.57,631.37 195.40,628.80 196.23,626.24 197.06,623.69 197.89,621.13 198.72,618.58 199.55,616.03 200.38,613.48 201.21,610.93 202.04,608.39 202.87,605.85 203.70,603.31 204.53,600.78 205.36,598.25 206.20,595.72 207.03,593.19 207.86,590.67 208.69,588.15 209.52,585.63 210.35,583.12 211.18,580.61 212.01,578.10 212.84,575.60 213.67,573.10 214.50,570.60 215.33,568.11 216.16,565.61 216.99,563.13 217.83,560.64 218.66,558.16 219.49,555.69 220.32,553.22 221.15,550.75 221.98,548.28 222.81,545.82 223.64,543.37 224.47,540.91 225.30,538.46 226.13,536.02 226.96,533.58 227.79,531.14 228.62,528.71 229.45,526.28 230.29,523.86 231.12,521.44 231.95,519.02 232.78,516.61 233.61,514.21 234.44,511.81 235.27,509.41 236.10,507.02 236.93,504.63 237.76,502.25 238.59,499.87 239.42,497.50 240.25,495.13 241.08,492.76 241.91,490.41 242.75,488.05 243.58,485.71 244.41,483.36 245.24,481.03 246.07,478.69 246.90,476.37 247.73,474.04 248.56,471.73 249.39,469.42 250.22,467.11 251.05,464.81 251.88,462.52 252.71,460.23 253.54,457.94 254.37,455.67 255.21,453.40 256.04,451.13 256.87,448.87 257.70,446.62 258.53,444.37 259.36,442.13 260.19,439.89 261.02,437.66 261.85,435.44 262.68,433.22 263.51,431.01 264.34,428.80 265.17,426.60 266.00,424.41 266.84,422.22 267.67,420.04 268.50,417.87 269.33,415.70 270.16,413.54 270.99,411.39 271.82,409.24 272.65,407.10 273.48,404.97 274.31,402.84 275.14,400.72 275.97,398.61 276.80,396.50 277.63,394.40 278.46,392.31 279.30,390.22 280.13,388.14 280.96,386.07 281.79,384.01 282.62,381.95 283.45,379.90 284.28,377.86 285.11,375.82 285.94,373.80 286.77,371.78 287.60,369.76 288.43,367.76 289.26,365.76 290.09,363.77 290.92,361.79 291.76,359.81 292.59,357.84 293.42,355.88 294.25,353.93 295.08,351.99 295.91,350.05 296.74,348.12 297.57,346.20 298.40,344.29 299.23,342.39 300.06,340.49 300.89,338.60 301.72,336.72 302.55,334.85 303.39,332.99 304.22,331.13 305.05,329.28 305.88,327.44 306.71,325.61 307.54,323.79 308.37,321.98 309.20,320.17 310.03,318.37 310.86,316.59 311.69,314.81 312.52,313.03 313.35,311.27 314.18,309.52 315.01,307.77 315.85,306.04 316.68,304.31 317.51,302.59 318.34,300.88 319.17,299.18 320.00,297.48 320.83,295.80 321.66,294.13 322.49,292.46 323.32,290.81 324.15,289.16 324.98,287.52 325.81,285.89 326.64,284.27 327.47,282.66 328.31,281.06 329.14,279.47 329.97,277.88 330.80,276.31 331.63,274.75 332.46,273.19 333.29,271.65 334.12,270.11 334.95,268.58 335.78,267.07 336.61,265.56 337.44,264.06 338.27,262.57 339.10,261.10 339.93,259.63 340.77,258.17 341.60,256.72 342.43,255.28 343.26,253.85 344.09,252.43 344.92,251.02 345.75,249.62 346.58,248.23 347.41,246.85 348.24,245.48 349.07,244.12 349.90,242.77 350.73,241.43 351.56,240.10 352.40,238.78 353.23,237.47 354.06,236.17 354.89,234.88 355.72,233.60 356.55,232.33 357.38,231.07 358.21,229.82 359.04,228.58 359.87,227.36 360.70,226.14 361.53,224.93 362.36,223.74 363.19,222.55 364.02,221.37 364.86,220.21 365.69,219.05 366.52,217.91 367.35,216.77 368.18,215.65 369.01,214.54 369.84,213.44 370.67,212.35 371.50,211.27 372.33,210.20 373.16,209.14 373.99,208.09 374.82,207.05 375.65,206.02 376.48,205.01 377.32,204.00 378.15,203.01 378.98,202.02 379.81,201.05 380.64,200.09 381.47,199.14 382.30,198.20 383.13,197.27 383.96,196.35 384.79,195.44 385.62,194.55 386.45,193.66 387.28,192.79 388.11,191.92 388.95,191.07 389.78,190.23 390.61,189.40 391.44,188.58 392.27,187.77 393.10,186.98 393.93,186.19 394.76,185.42 395.59,184.66 396.42,183.90 397.25,183.16 398.08,182.43 398.91,181.72 399.74,181.01 400.57,180.31 401.41,179.63 402.24,178.96 403.07,178.30 403.90,177.65 404.73,177.01 405.56,176.38 406.39,175.77 407.22,175.16 408.05,174.57 408.88,173.99 409.71,173.42 410.54,172.86 411.37,172.31 412.20,171.78 413.03,171.25 413.87,170.74 414.70,170.24 415.53,169.75 416.36,169.27 417.19,168.80 418.02,168.35 418.85,167.90 419.68,167.47 420.51,167.05 421.34,166.64 422.17,166.25 423.00,165.86 423.83,165.49 424.66,165.12 425.49,164.77 426.33,164.43 427.16,164.11 427.99,163.79 428.82,163.49 429.65,163.19 430.48,162.91 431.31,162.64 432.14,162.39 432.97,162.14 433.80,161.91 434.63,161.68 435.46,161.47 436.29,161.27 437.12,161.09 437.96,160.91 438.79,160.75 439.62,160.59 440.45,160.45 441.28,160.32 442.11,160.21 442.94,160.10 443.77,160.01 444.60,159.92 445.43,159.85 446.26,159.80 447.09,159.75 447.92,159.71 448.75,159.69 449.58,159.68 450.42,159.68 451.25,159.69 452.08,159.71 452.91,159.75 453.74,159.80 454.57,159.85 455.40,159.92 456.23,160.01 457.06,160.10 457.89,160.21 458.72,160.32 459.55,160.45 460.38,160.59 461.21,160.75 462.04,160.91 462.88,161.09 463.71,161.27 464.54,161.47 465.37,161.68 466.20,161.91 467.03,162.14 467.86,162.39 468.69,162.64 469.52,162.91 470.35,163.19 471.18,163.49 472.01,163.79 472.84,164.11 473.67,164.43 474.51,164.77 475.34,165.12 476.17,165.49 477.00,165.86 477.83,166.25 478.66,166.64 479.49,167.05 480.32,167.47 481.15,167.90 481.98,168.35 482.81,168.80 483.64,169.27 484.47,169.75 485.30,170.24 486.13,170.74 486.97,171.25 487.80,171.78 488.63,172.31 489.46,172.86 490.29,173.42 491.12,173.99 491.95,174.57 492.78,175.16 493.61,175.77 494.44,176.38 495.27,177.01 496.10,177.65 496.93,178.30 497.76,178.96 498.59,179.63 499.43,180.31 500.26,181.01 501.09,181.72 501.92,182.43 502.75,183.16 503.58,183.90 504.41,184.66 505.24,185.42 506.07,186.19 506.90,186.98 507.73,187.77 508.56,188.58 509.39,189.40 510.22,190.23 511.05,191.07 511.89,191.92 512.72,192.79 513.55,193.66 514.38,194.55 515.21,195.44 516.04,196.35 516.87,197.27 517.70,198.20 518.53,199.14 519.36,200.09 520.19,201.05 521.02,202.02 521.85,203.01 522.68,204.00 523.52,205.01 524.35,206.02 525.18,207.05 526.01,208.09 526.84,209.14 527.67,210.20 528.50,211.27 529.33,212.35 530.16,213.44 530.99,214.54 531.82,215.65 532.65,216.77 533.48,217.91 534.31,219.05 535.14,220.21 535.98,221.37 536.81,222.55 537.64,223.74 538.47,224.93 539.30,226.14 540.13,227.36 540.96,228.58 541.79,229.82 542.62,231.07 543.45,232.33 544.28,233.60 545.11,234.88 545.94,236.17 546.77,237.47 547.60,238.78 548.44,240.10 549.27,241.43 550.10,242.77 550.93,244.12 551.76,245.48 552.59,246.85 553.42,248.23 554.25,249.62 555.08,251.02 555.91,252.43 556.74,253.85 557.57,255.28 558.40,256.72 559.23,258.17 560.07,259.63 560.90,261.10 561.73,262.57 562.56,264.06 563.39,265.56 564.22,267.07 565.05,268.58 565.88,270.11 566.71,271.65 567.54,273.19 568.37,274.75 569.20,276.31 570.03,277.88 570.86,279.47 571.69,281.06 572.53,282.66 573.36,284.27 574.19,285.89 575.02,287.52 575.85,289.16 576.68,290.81 577.51,292.46 578.34,294.13 579.17,295.80 580.00,297.48 580.83,299.18 581.66,300.88 582.49,302.59 583.32,304.31 584.15,306.04 584.99,307.77 585.82,309.52 586.65,311.27 587.48,313.03 588.31,314.81 589.14,316.59 589.97,318.37 590.80,320.17 591.63,321.98 592.46,323.79 593.29,325.61 594.12,327.44 594.95,329.28 595.78,331.13 596.61,332.99 597.45,334.85 598.28,336.72 599.11,338.60 599.94,340.49 600.77,342.39 601.60,344.29 602.43,346.20 603.26,348.12 604.09,350.05 604.92,351.99 605.75,353.93 606.58,355.88 607.41,357.84 608.24,359.81 609.08,361.79 609.91,363.77 610.74,365.76 611.57,367.76 612.40,369.76 613.23,371.78 614.06,373.80 614.89,375.82 615.72,377.86 616.55,379.90 617.38,381.95 618.21,384.01 619.04,386.07 619.87,388.14 620.70,390.22 621.54,392.31 622.37,394.40 623.20,396.50 624.03,398.61 624.86,400.72 625.69,402.84 626.52,404.97 627.35,407.10 628.18,409.24 629.01,411.39 629.84,413.54 630.67,415.70 631.50,417.87 632.33,420.04 633.16,422.22 634.00,424.41 634.83,426.60 635.66,428.80 636.49,431.01 637.32,433.22 638.15,435.44 638.98,437.66 639.81,439.89 640.64,442.13 641.47,444.37 642.30,446.62 643.13,448.87 643.96,451.13 644.79,453.40 645.63,455.67 646.46,457.94 647.29,460.23 648.12,462.52 648.95,464.81 649.78,467.11 650.61,469.42 651.44,471.73 652.27,474.04 653.10,476.37 653.93,478.69 654.76,481.03 655.59,483.36 656.42,485.71 657.25,488.05 658.09,490.41 658.92,492.76 659.75,495.13 660.58,497.50 661.41,499.87 662.24,502.25 663.07,504.63 663.90,507.02 664.73,509.41 665.56,511.81 666.39,514.21 667.22,516.61 668.05,519.02 668.88,521.44 669.71,523.86 670.55,526.28 671.38,528.71 672.21,531.14 673.04,533.58 673.87,536.02 674.70,538.46 675.53,540.91 676.36,543.37 677.19,545.82 678.02,548.28 678.85,550.75 679.68,553.22 680.51,555.69 681.34,558.16 682.17,560.64 683.01,563.13 683.84,565.61 684.67,568.11 685.50,570.60 686.33,573.10 687.16,575.60 687.99,578.10 688.82,580.61 689.65,583.12 690.48,585.63 691.31,588.15 692.14,590.67 692.97,593.19 693.80,595.72 694.64,598.25 695.47,600.78 696.30,603.31 697.13,605.85 697.96,608.39 698.79,610.93 699.62,613.48 700.45,616.03 701.28,618.58 702.11,621.13 702.94,623.69 703.77,626.24 704.60,628.80 705.43,631.37 706.26,633.93 707.10,636.50 707.93,639.07 708.76,641.64 709.59,644.21 710.42,646.78 711.25,649.36 712.08,651.94 712.91,654.52 713.74,657.10 714.57,659.68 715.40,662.27 716.23,664.86 717.06,667.44 717.89,670.03 718.72,672.63 719.56,675.22 720.39,677.81 721.22,680.41 722.05,683.00 722.88,685.60 723.71,688.20 724.54,690.80 725.37,693.40 726.20,696.00 727.03,698.60 727.86,701.21 728.69,703.81 729.52,706.42 730.35,709.02 731.19,711.63 732.02,714.23 732.85,716.84 733.68,719.45 734.51,722.06 735.34,724.67 736.17,727.27 737.00,729.88 737.83,732.49 738.66,735.10 739.49,737.71 740.32,740.32" fill="none" stroke="#265cab" stroke-width="7" stroke-linecap="round" stroke-linejoin="round"/>
<polygon points="362.36,223.74 359.22,243.49 344.96,233.59" fill="#265cab"/>
<polygon points="565.88,270.11 549.64,258.43 564.89,250.13" fill="#265cab"/>
</svg>