<svg xmlns="http://www.w3.org/2000/svg" width="900" height="900" viewBox="0 0 900 900">
<rect width="100%" height="100%" fill="#ffffff"/>
<line x1="515.93" y1="810.00" x2="515.93" y2="90.00" stroke="#232323" stroke-width="3"/>
<line x1="90.00" y1="450.00" x2="810.00" y2="450.00" stroke="#232323" stroke-width="3"/>
<polyline points="713.71,450.00 713.71,449.41 713.71,448.82 713.71,448.22 713.71,447.63 713.71,447.04 713.71,446.45 713.71,445.85 713.71,445.26 713.71,444.67 713.71,444.07 713.71,443.48 713.71,442.89 713.71,442.29 713.71,441.70 713.71,441.10 713.71,440.51 713.71,439.91 713.71,439.32 713.71,438.72 713.71,438.12 713.71,437.53 713.71,436.93 713.71,436.33 713.70,435.73 713.70,435.13 713.70,434.53 713.70,433.93 713.70,433.33 713.70,432.73 713.70,432.13 713.70,431.52 713.70,430.92 713.69,430.32 713.69,429.71 713.69,429.10 713.69,428.50 713.68,427.89 713.68,427.28 713.68,426.67 713.68,426.06 713.67,425.45 713.67,424.84 713.66,424.22 713.66,423.61 713.65,422.99 713.65,422.38 713.64,421.76 713.64,421.14 713.63,420.52 713.63,419.90 713.62,419.28 713.61,418.66 713.60,418.03 713.60,417.41 713.59,416.78 713.58,416.15 713.57,415.52 713.56,414.89 713.55,414.26 713.54,413.63 713.53,413.00 713.51,412.36 713.50,411.72 713.49,411.09 713.47,410.45 713.46,409.81 713.44,409.16 713.43,408.52 713.41,407.87 713.39,407.23 713.37,406.58 713.35,405.93 713.34,405.28 713.31,404.63 713.29,403.97 713.27,403.32 713.25,402.66 713.22,402.00 713.20,401.34 713.17,400.68 713.14,400.01 713.12,399.35 713.09,398.68 713.06,398.01 713.03,397.34 712.99,396.67 712.96,396.00 712.93,395.32 712.89,394.64 712.85,393.96 712.81,393.28 712.78,392.60 712.73,391.92 712.69,391.23 712.65,390.54 712.60,389.85 712.56,389.16 712.51,388.47 712.46,387.77 712.41,387.07 712.36,386.38 712.31,385.68 712.25,384.97 712.20,384.27 712.14,383.56 712.08,382.85 712.02,382.14 711.95,381.43 711.89,380.72 711.82,380.00 711.76,379.28 711.69,378.56 711.61,377.84 711.54,377.12 711.47,376.39 711.39,375.67 711.31,374.94 711.23,374.20 711.14,373.47 711.06,372.74 710.97,372.00 710.88,371.26 710.79,370.52 710.70,369.77 710.60,369.03 710.50,368.28 710.40,367.53 710.30,366.78 710.20,366.03 710.09,365.27 709.98,364.52 709.87,363.76 709.76,363.00 709.64,362.24 709.52,361.47 709.40,360.70 709.27,359.94 709.15,359.17 709.02,358.39 708.89,357.62 708.75,356.84 708.61,356.06 708.47,355.28 708.33,354.50 708.19,353.72 708.04,352.93 707.89,352.14 707.73,351.35 707.58,350.56 707.42,349.77 707.25,348.97 707.09,348.18 706.92,347.38 706.75,346.58 706.57,345.77 706.39,344.97 706.21,344.16 706.03,343.35 705.84,342.54 705.65,341.73 705.45,340.92 705.26,340.10 705.05,339.29 704.85,338.47 704.64,337.65 704.43,336.83 704.22,336.00 704.00,335.18 703.78,334.35 703.55,333.52 703.32,332.69 703.09,331.86 702.85,331.02 702.61,330.19 702.37,329.35 702.12,328.51 701.87,327.67 701.61,326.83 701.35,325.99 701.09,325.14 700.82,324.30 700.55,323.45 700.28,322.60 700.00,321.75 699.72,320.90 699.43,320.05 699.14,319.19 698.84,318.34 698.54,317.48 698.24,316.62 697.93,315.76 697.62,314.90 697.30,314.04 696.98,313.18 696.66,312.31 696.33,311.45 696.00,310.58 695.66,309.71 695.31,308.84 694.97,307.97 694.62,307.10 694.26,306.23 693.90,305.36 693.53,304.48 693.16,303.61 692.79,302.73 692.41,301.86 692.03,300.98 691.64,300.10 691.24,299.22 690.85,298.34 690.44,297.46 690.04,296.58 689.62,295.70 689.21,294.82 688.78,293.94 688.36,293.05 687.92,292.17 687.49,291.28 687.05,290.40 686.60,289.51 686.15,288.63 685.69,287.74 685.23,286.85 684.76,285.97 684.29,285.08 683.81,284.19 683.32,283.30 682.84,282.42 682.34,281.53 681.84,280.64 681.34,279.75 680.83,278.86 680.32,277.98 679.80,277.09 679.27,276.20 678.74,275.31 678.20,274.42 677.66,273.54 677.12,272.65 676.56,271.76 676.01,270.87 675.44,269.99 674.87,269.10 674.30,268.21 673.72,267.33 673.13,266.44 672.54,265.56 671.95,264.68 671.34,263.79 670.74,262.91 670.12,262.03 669.50,261.15 668.88,260.27 668.25,259.39 667.61,258.51 666.97,257.63 666.32,256.75 665.67,255.88 665.01,255.00 664.34,254.13 663.67,253.25 663.00,252.38 662.31,251.51 661.63,250.64 660.93,249.77 660.23,248.91 659.53,248.04 658.81,247.18 658.10,246.32 657.37,245.45 656.64,244.60 655.91,243.74 655.17,242.88 654.42,242.03 653.67,241.17 652.91,240.32 652.15,239.47 651.37,238.62 650.60,237.78 649.82,236.94 649.03,236.09 648.23,235.25 647.43,234.42 646.63,233.58 645.81,232.75 645.00,231.92 644.17,231.09 643.34,230.26 642.50,229.44 641.66,228.62 640.81,227.80 639.96,226.98 639.10,226.17 638.23,225.35 637.36,224.54 636.48,223.74 635.60,222.93 634.71,222.13 633.81,221.34 632.91,220.54 632.00,219.75 631.09,218.96 630.17,218.17 629.24,217.39 628.31,216.61 627.37,215.83 626.43,215.06 625.48,214.29 624.53,213.52 623.56,212.76 622.60,212.00 621.62,211.24 620.64,210.49 619.66,209.74 618.67,209.00 617.67,208.25 616.67,207.51 615.66,206.78 614.64,206.05 613.62,205.32 612.60,204.60 611.57,203.88 610.53,203.16 609.48,202.45 608.44,201.75 607.38,201.04 606.32,200.35 605.25,199.65 604.18,198.96 603.10,198.28 602.02,197.59 600.93,196.92 599.83,196.25 598.73,195.58 597.63,194.91 596.51,194.26 595.40,193.60 594.27,192.95 593.15,192.31 592.01,191.67 590.87,191.04 589.73,190.41 588.58,189.78 587.42,189.16 586.26,188.55 585.09,187.94 583.92,187.33 582.74,186.74 581.56,186.14 580.37,185.55 579.18,184.97 577.98,184.39 576.77,183.82 575.56,183.26 574.35,182.69 573.13,182.14 571.90,181.59 570.67,181.05 569.44,180.51 568.20,179.98 566.95,179.45 565.70,178.93 564.45,178.41 563.19,177.91 561.92,177.40 560.65,176.91 559.38,176.42 558.10,175.93 556.82,175.45 555.53,174.98 554.23,174.52 552.94,174.06 551.63,173.61 550.32,173.16 549.01,172.72 547.70,172.29 546.37,171.86 545.05,171.44 543.72,171.03 542.38,170.62 541.04,170.22 539.70,169.83 538.35,169.44 537.00,169.06 535.65,168.69 534.29,168.32 532.92,167.96 531.55,167.61 530.18,167.27 528.80,166.93 527.42,166.60 526.04,166.28 524.65,165.96 523.26,165.65 521.86,165.35 520.46,165.06 519.06,164.77 517.65,164.49 516.24,164.22 514.83,163.96 513.41,163.70 511.99,163.45 510.56,163.21 509.13,162.98 507.70,162.75 506.27,162.53 504.83,162.32 503.39,162.12 501.94,161.92 500.49,161.74 499.04,161.56 497.59,161.39 496.13,161.22 494.67,161.07 493.21,160.92 491.74,160.78 490.28,160.65 488.80,160.53 487.33,160.41 485.85,160.31 484.37,160.21 482.89,160.12 481.41,160.04 479.92,159.96 478.43,159.90 476.94,159.84 475.45,159.79 473.95,159.75 472.45,159.72 470.95,159.70 469.45,159.68 467.95,159.68 466.44,159.68 464.93,159.69 463.42,159.71 461.91,159.74 460.40,159.78 458.88,159.82 457.37,159.88 455.85,159.94 454.33,160.01 452.81,160.09 451.28,160.18 449.76,160.28 448.23,160.39 446.71,160.51 445.18,160.63 443.65,160.77 442.12,160.91 440.59,161.06 439.06,161.22 437.53,161.39 435.99,161.57 434.46,161.76 432.92,161.96 431.39,162.16 429.85,162.38 428.31,162.60 426.78,162.83 425.24,163.08 423.70,163.33 422.16,163.59 420.63,163.86 419.09,164.14 417.55,164.43 416.01,164.73 414.47,165.03 412.93,165.35 411.39,165.67 409.86,166.01 408.32,166.35 406.78,166.70 405.24,167.07 403.71,167.44 402.17,167.82 400.64,168.21 399.10,168.61 397.57,169.02 396.04,169.44 394.50,169.86 392.97,170.30 391.44,170.75 389.91,171.20 388.38,171.67 386.86,172.14 385.33,172.63 383.81,173.12 382.28,173.62 380.76,174.13 379.24,174.65 377.72,175.19 376.21,175.73 374.69,176.27 373.18,176.83 371.67,177.40 370.16,177.98 368.65,178.56 367.14,179.16 365.64,179.77 364.14,180.38 362.64,181.00 361.14,181.64 359.65,182.28 358.16,182.93 356.67,183.59 355.18,184.26 353.69,184.94 352.21,185.63 350.73,186.33 349.26,187.04 347.78,187.76 346.31,188.48 344.85,189.22 343.38,189.96 341.92,190.72 340.46,191.48 339.01,192.25 337.56,193.03 336.11,193.83 334.66,194.63 333.22,195.43 331.78,196.25 330.35,197.08 328.92,197.92 327.49,198.76 326.07,199.62 324.65,200.48 323.24,201.35 321.83,202.23 320.42,203.12 319.02,204.02 317.62,204.93 316.23,205.85 314.84,206.78 313.45,207.71 312.07,208.65 310.70,209.61 309.32,210.57 307.96,211.54 306.60,212.52 305.24,213.51 303.89,214.50 302.54,215.51 301.20,216.52 299.86,217.55 298.53,218.58 297.20,219.62 295.88,220.66 294.56,221.72 293.25,222.79 291.95,223.86 290.65,224.94 289.35,226.03 288.06,227.13 286.78,228.24 285.50,229.36 284.23,230.48 282.97,231.61 281.71,232.75 280.45,233.90 279.20,235.06 277.96,236.22 276.73,237.39 275.50,238.58 274.27,239.76 273.06,240.96 271.85,242.17 270.64,243.38 269.44,244.60 268.25,245.83 267.07,247.06 265.89,248.31 264.72,249.56 263.56,250.82 262.40,252.08 261.25,253.36 260.10,254.64 258.97,255.93 257.84,257.23 256.71,258.53 255.60,259.84 254.49,261.16 253.39,262.49 252.30,263.82 251.21,265.16 250.13,266.51 249.06,267.86 248.00,269.22 246.94,270.59 245.89,271.97 244.85,273.35 243.82,274.74 242.79,276.14 241.78,277.54 240.77,278.95 239.77,280.36 238.77,281.79 237.79,283.22 236.81,284.65 235.84,286.09 234.88,287.54 233.93,289.00 232.98,290.46 232.05,291.93 231.12,293.40 230.20,294.88 229.29,296.37 228.38,297.86 227.49,299.36 226.60,300.86 225.73,302.37 224.86,303.89 224.00,305.41 223.15,306.93 222.31,308.47 221.47,310.00 220.65,311.55 219.83,313.10 219.03,314.65 218.23,316.21 217.44,317.78 216.66,319.35 215.89,320.92 215.13,322.50 214.38,324.09 213.64,325.68 212.91,327.28 212.18,328.88 211.47,330.48 210.76,332.09 210.07,333.71 209.38,335.32 208.70,336.95 208.04,338.58 207.38,340.21 206.73,341.85 206.09,343.49 205.46,345.13 204.84,346.78 204.23,348.44 203.63,350.10 203.04,351.76 202.46,353.42 201.89,355.09 201.33,356.77 200.78,358.44 200.24,360.13 199.71,361.81 199.19,363.50 198.68,365.19 198.18,366.88 197.69,368.58 197.21,370.28 196.74,371.99 196.28,373.70 195.82,375.41 195.38,377.12 194.95,378.84 194.53,380.56 194.13,382.28 193.73,384.01 193.34,385.73 192.96,387.46 192.59,389.20 192.23,390.93 191.88,392.67 191.55,394.41 191.22,396.15 190.90,397.90 190.60,399.64 190.30,401.39 190.01,403.14 189.74,404.90 189.47,406.65 189.22,408.41 188.98,410.16 188.74,411.92 188.52,413.68 188.31,415.45 188.11,417.21 187.92,418.97 187.74,420.74 187.57,422.51 187.41,424.28 187.26,426.05 187.12,427.82 186.99,429.59 186.88,431.36 186.77,433.13 186.67,434.91 186.59,436.68 186.51,438.46 186.45,440.23 186.40,442.01 186.35,443.78 186.32,445.56 186.30,447.34 186.29,449.11 186.29,450.89 186.30,452.66 186.32,454.44 186.35,456.22 186.40,457.99 186.45,459.77 186.51,461.54 186.59,463.32 186.67,465.09 186.77,466.87 186.88,468.64 186.99,470.41 187.12,472.18 187.26,473.95 187.41,475.72 187.57,477.49 187.74,479.26 187.92,481.03 188.11,482.79 188.31,484.55 188.52,486.32 188.74,488.08 188.98,489.84 189.22,491.59 189.47,493.35 189.74,495.10 190.01,496.86 190.30,498.61 190.60,500.36 190.90,502.10 191.22,503.85 191.55,505.59 191.88,507.33 192.23,509.07 192.59,510.80 192.96,512.54 193.34,514.27 193.73,515.99 194.13,517.72 194.53,519.44 194.95,521.16 195.38,522.88 195.82,524.59 196.28,526.30 196.74,528.01 197.21,529.72 197.69,531.42 198.18,533.12 198.68,534.81 199.19,536.50 199.71,538.19 200.24,539.87 200.78,541.56 201.33,543.23 201.89,544.91 202.46,546.58 203.04,548.24 203.63,549.90 204.23,551.56 204.84,553.22 205.46,554.87 206.09,556.51 206.73,558.15 207.38,559.79 208.04,561.42 208.70,563.05 209.38,564.68 210.07,566.29 210.76,567.91 211.47,569.52 212.18,571.12 212.91,572.72 213.64,574.32 214.38,575.91 215.13,577.50 215.89,579.08 216.66,580.65 217.44,582.22 218.23,583.79 219.03,585.35 219.83,586.90 220.65,588.45 221.47,590.00 222.31,591.53 223.15,593.07 224.00,594.59 224.86,596.11 225.73,597.63 226.60,599.14 227.49,600.64 228.38,602.14 229.29,603.63 230.20,605.12 231.12,606.60 232.05,608.07 232.98,609.54 233.93,611.00 234.88,612.46 235.84,613.91 236.81,615.35 237.79,616.78 238.77,618.21 239.77,619.64 240.77,621.05 241.78,622.46 242.79,623.86 243.82,625.26 244.85,626.65 245.89,628.03 246.94,629.41 248.00,630.78 249.06,632.14 250.13,633.49 251.21,634.84 252.30,636.18 253.39,637.51 254.49,638.84 255.60,640.16 256.71,641.47 257.84,642.77 258.97,644.07 260.10,645.36 261.25,646.64 262.40,647.92 263.56,649.18 264.72,650.44 265.89,651.69 267.07,652.94 268.25,654.17 269.44,655.40 270.64,656.62 271.85,657.83 273.06,659.04 274.27,660.24 275.50,661.42 276.73,662.61 277.96,663.78 279.20,664.94 280.45,666.10 281.71,667.25 282.97,668.39 284.23,669.52 285.50,670.64 286.78,671.76 288.06,672.87 289.35,673.97 290.65,675.06 291.95,676.14 293.25,677.21 294.56,678.28 295.88,679.34 297.20,680.38 298.53,681.42 299.86,682.45 301.20,683.48 302.54,684.49 303.89,685.50 305.24,686.49 306.60,687.48 307.96,688.46 309.32,689.43 310.70,690.39 312.07,691.35 313.45,692.29 314.84,693.22 316.23,694.15 317.62,695.07 319.02,695.98 320.42,696.88 321.83,697.77 323.24,698.65 324.65,699.52 326.07,700.38 327.49,701.24 328.92,702.08 330.35,702.92 331.78,703.75 333.22,704.57 334.66,705.37 336.11,706.17 337.56,706.97 339.01,707.75 340.46,708.52 341.92,709.28 343.38,710.04 344.85,710.78 346.31,711.52 347.78,712.24 349.26,712.96 350.73,713.67 352.21,714.37 353.69,715.06 355.18,715.74 356.67,716.41 358.16,717.07 359.65,717.72 361.14,718.36 362.64,719.00 364.14,719.62 365.64,720.23 367.14,720.84 368.65,721.44 370.16,722.02 371.67,722.60 373.18,723.17 374.69,723.73 376.21,724.27 377.72,724.81 379.24,725.35 380.76,725.87 382.28,726.38 383.81,726.88 385.33,727.37 386.86,727.86 388.38,728.33 389.91,728.80 391.44,729.25 392.97,729.70 394.50,730.14 396.04,730.56 397.57,730.98 399.10,731.39 400.64,731.79 402.17,732.18 403.71,732.56 405.24,732.93 406.78,733.30 408.32,733.65 409.86,733.99 411.39,734.33 412.93,734.65 414.47,734.97 416.01,735.27 417.55,735.57 419.09,735.86 420.63,736.14 422.16,736.41 423.70,736.67 425.24,736.92 426.78,737.17 428.31,737.40 429.85,737.62 431.39,737.84 432.92,738.04 434.46,738.24 435.99,738.43 437.53,738.61 439.06,738.78 440.59,738.94 442.12,739.09 443.65,739.23 445.18,739.37 446.71,739.49 448.23,739.61 449.76,739.72 451.28,739.82 452.81,739.91 454.33,739.99 455.85,740.06 457.37,740.12 458.88,740.18 460.40,740.22 461.91,740.26 463.42,740.29 464.93,740.31 466.44,740.32 467.95,740.32 469.45,740.32 470.95,740.30 472.45,740.28 473.95,740.25 475.45,740.21 476.94,740.16 478.43,740.10 479.92,740.04 481.41,739.96 482.89,739.88 484.37,739.79 485.85,739.69 487.33,739.59 488.80,739.47 490.28,739.35 491.74,739.22 493.21,739.08 494.67,738.93 496.13,738.78 497.59,738.61 499.04,738.44 500.49,738.26 501.94,738.08 503.39,737.88 504.83,737.68 506.27,737.47 507.70,737.25 509.13,737.02 510.56,736.79 511.99,736.55 513.41,736.30 514.83,736.04 516.24,735.78 517.65,735.51 519.06,735.23 520.46,734.94 521.86,734.65 523.26,734.35 524.65,734.04 526.04,733.72 527.42,733.40 528.80,733.07 530.18,732.73 531.55,732.39 532.92,732.04 534.29,731.68 535.65,731.31 537.00,730.94 538.35,730.56 539.70,730.17 541.04,729.78 542.38,729.38 543.72,728.97 545.05,728.56 546.37,728.14 547.70,727.71 549.01,727.28 550.32,726.84 551.63,726.39 552.94,725.94 554.23,725.48 555.53,725.02 556.82,724.55 558.10,724.07 559.38,723.58 560.65,723.09 561.92,722.60 563.19,722.09 564.45,721.59 565.70,721.07 566.95,720.55 568.20,720.02 569.44,719.49 570.67,718.95 571.90,718.41 573.13,717.86 574.35,717.31 575.56,716.74 576.77,716.18 577.98,715.61 579.18,715.03 580.37,714.45 581.56,713.86 582.74,713.26 583.92,712.67 585.09,712.06 586.26,711.45 587.42,710.84 588.58,710.22 589.73,709.59 590.87,708.96 592.01,708.33 593.15,707.69 594.27,707.05 595.40,706.40 596.51,705.74 597.63,705.09 598.73,704.42 599.83,703.75 600.93,703.08 602.02,702.41 603.10,701.72 604.18,701.04 605.25,700.35 606.32,699.65 607.38,698.96 608.44,698.25 609.48,697.55 610.53,696.84 611.57,696.12 612.60,695.40 613.62,694.68 614.64,693.95 615.66,693.22 616.67,692.49 617.67,691.75 618.67,691.00 619.66,690.26 620.64,689.51 621.62,688.76 622.60,688.00 623.56,687.24 624.53,686.48 625.48,685.71 626.43,684.94 627.37,684.17 628.31,683.39 629.24,682.61 630.17,681.83 631.09,681.04 632.00,680.25 632.91,679.46 633.81,678.66 634.71,677.87 635.60,677.07 636.48,676.26 637.36,675.46 638.23,674.65 639.10,673.83 639.96,673.02 640.81,672.20 641.66,671.38 642.50,670.56 643.34,669.74 644.17,668.91 645.00,668.08 645.81,667.25 646.63,666.42 647.43,665.58 648.23,664.75 649.03,663.91 649.82,663.06 650.60,662.22 651.37,661.38 652.15,660.53 652.91,659.68 653.67,658.83 654.42,657.97 655.17,657.12 655.91,656.26 656.64,655.40 657.37,654.55 658.10,653.68 658.81,652.82 659.53,651.96 660.23,651.09 660.93,650.23 661.63,649.36 662.31,648.49 663.00,647.62 663.67,646.75 664.34,645.87 665.01,645.00 665.67,644.12 666.32,643.25 666.97,642.37 667.61,641.49 668.25,640.61 668.88,639.73 669.50,638.85 670.12,637.97 670.74,637.09 671.34,636.21 671.95,635.32 672.54,634.44 673.13,633.56 673.72,632.67 674.30,631.79 674.87,630.90 675.44,630.01 676.01,629.13 676.56,628.24 677.12,627.35 677.66,626.46 678.20,625.58 678.74,624.69 679.27,623.80 679.80,622.91 680.32,622.02 680.83,621.14 681.34,620.25 681.84,619.36 682.34,618.47 682.84,617.58 683.32,616.70 683.81,615.81 684.29,614.92 684.76,614.03 685.23,613.15 685.69,612.26 686.15,611.37 686.60,610.49 687.05,609.60 687.49,608.72 687.92,607.83 688.36,606.95 688.78,606.06 689.21,605.18 689.62,604.30 690.04,603.42 690.44,602.54 690.85,601.66 691.24,600.78 691.64,599.90 692.03,599.02 692.41,598.14 692.79,597.27 693.16,596.39 693.53,595.52 693.90,594.64 694.26,593.77 694.62,592.90 694.97,592.03 695.31,591.16 695.66,590.29 696.00,589.42 696.33,588.55 696.66,587.69 696.98,586.82 697.30,585.96 697.62,585.10 697.93,584.24 698.24,583.38 698.54,582.52 698.84,581.66 699.14,580.81 699.43,579.95 699.72,579.10 700.00,578.25 700.28,577.40 700.55,576.55 700.82,575.70 701.09,574.86 701.35,574.01 701.61,573.17 701.87,572.33 702.12,571.49 702.37,570.65 702.61,569.81 702.85,568.98 703.09,568.14 703.32,567.31 703.55,566.48 703.78,565.65 704.00,564.82 704.22,564.00 704.43,563.17 704.64,562.35 704.85,561.53 705.05,560.71 705.26,559.90 705.45,559.08 705.65,558.27 705.84,557.46 706.03,556.65 706.21,555.84 706.39,555.03 706.57,554.23 706.75,553.42 706.92,552.62 707.09,551.82 707.25,551.03 707.42,550.23 707.58,549.44 707.73,548.65 707.89,547.86 708.04,547.07 708.19,546.28 708.33,545.50 708.47,544.72 708.61,543.94 708.75,543.16 708.89,542.38 709.02,541.61 709.15,540.83 709.27,540.06 709.40,539.30 709.52,538.53 709.64,537.76 709.76,537.00 709.87,536.24 709.98,535.48 710.09,534.73 710.20,533.97 710.30,533.22 710.40,532.47 710.50,531.72 710.60,530.97 710.70,530.23 710.79,529.48 710.88,528.74 710.97,528.00 711.06,527.26 711.14,526.53 711.23,525.80 711.31,525.06 711.39,524.33 711.47,523.61 711.54,522.88 711.61,522.16 711.69,521.44 711.76,520.72 711.82,520.00 711.89,519.28 711.95,518.57 712.02,517.86 712.08,517.15 712.14,516.44 712.20,515.73 712.25,515.03 712.31,514.32 712.36,513.62 712.41,512.93 712.46,512.23 712.51,511.53 712.56,510.84 712.60,510.15 712.65,509.46 712.69,508.77 712.73,508.08 712.78,507.40 712.81,506.72 712.85,506.04 712.89,505.36 712.93,504.68 712.96,504.00 712.99,503.33 713.03,502.66 713.06,501.99 713.09,501.32 713.12,500.65 713.14,499.99 713.17,499.32 713.20,498.66 713.22,498.00 713.25,497.34 713.27,496.68 713.29,496.03 713.31,495.37 713.34,494.72 713.35,494.07 713.37,493.42 713.39,492.77 713.41,492.13 713.43,491.48 713.44,490.84 713.46,490.19 713.47,489.55 713.49,488.91 713.50,488.28 713.51,487.64 713.53,487.00 713.54,486.37 713.55,485.74 713.56,485.11 713.57,484.48 713.58,483.85 713.59,483.22 713.60,482.59 713.60,481.97 713.61,481.34 713.62,480.72 713.63,480.10 713.63,479.48 713.64,478.86 713.64,478.24 713.65,477.62 713.65,477.01 713.66,476.39 713.66,475.78 713.67,475.16 713.67,474.55 713.68,473.94 713.68,473.33 713.68,472.72 713.68,472.11 713.69,471.50 713.69,470.90 713.69,470.29 713.69,469.68 713.70,469.08 713.70,468.48 713.70,467.87 713.70,467.27 713.70,466.67 713.70,466.07 713.70,465.47 713.70,464.87 713.70,464.27 713.71,463.67 713.71,463.07 713.71,462.47 713.71,461.88 713.71,461.28 713.71,460.68 713.71,460.09 713.71,459.49 713.71,458.90 713.71,458.30 713.71,457.71 713.71,457.11 713.71,456.52 713.71,455.93 713.71,455.33 713.71,454.74 713.71,454.15 713.71,453.55 713.71,452.96 713.71,452.37 713.71,451.78 713.71,451.18 713.71,450.59 713.71,450.00" fill="none" stroke="#265cab" stroke-width="7" stroke-linecap="round" stroke-linejoin="round"/>
<polygon points="627.37,215.83 646.79,220.64 635.72,234.01" fill="#265cab"/>
<polygon points="190.30,498.61 178.83,482.22 195.96,479.43" fill="#265cab"/>
<polygon points="670.12,637.97 666.86,657.71 652.66,647.73" fill="#265cab"/>
</svg>